<svg width="100" height="100" viewBox="0 0 100 100" fill="none" xmlns="http://www.w3.org/2000/svg">
<path fill-rule="evenodd" clip-rule="evenodd" d="M66.9997 50C75.8362 50 82.9997 42.8366 82.9997 34C82.9997 25.1634 75.8362 18 66.9997 18C60.0263 18 54.0948 22.4611 51.9036 28.6851C56.2665 32.6139 58.9997 38.245 58.9997 44.5C58.9997 45.5927 58.9162 46.6664 58.7553 47.7152C61.1631 49.1657 63.9839 50 66.9997 50ZM70.7731 76C64.7053 69.9962 55.4156 65.9228 45.0106 64.5301C49.2668 62.9032 52.8776 60.018 55.3642 56.3427C58.9829 55.4748 62.9044 55 67.0002 55C81.0248 55 93.006 60.5673 97.7841 68.4185C100.081 72.1928 96.4185 76 92.0002 76H70.7731ZM42.9121 68.3047C51.4706 69.1962 59.048 71.9916 64.5789 76H64.5783C59.0475 71.9917 51.4704 69.1962 42.9121 68.3047Z" fill="white"/>
<path d="M72.064 84.318C74.104 88.2371 70.4183 92 66 92H8C3.58172 92 -0.104013 88.2372 1.93597 84.318C6.87427 74.8307 20.7073 68 37 68C53.2926 68 67.1257 74.8307 72.064 84.318Z" fill="white"/>
<circle cx="37" cy="45" r="18" fill="white"/>
</svg>
