<svg width="100" height="100" viewBox="0 0 100 100" fill="none" xmlns="http://www.w3.org/2000/svg">
<path fill-rule="evenodd" clip-rule="evenodd" d="M74.259 45.9577C81.3445 45.9577 87.0884 40.2138 87.0884 33.1283C87.0884 26.0429 81.3445 20.2989 74.259 20.2989C68.6674 20.2989 63.9113 23.8761 62.1544 28.8669C65.6526 32.0171 67.844 36.5323 67.844 41.5476C67.844 42.4237 67.7772 43.2846 67.6481 44.1255C69.5788 45.2887 71.8408 45.9577 74.259 45.9577ZM64.9286 51.0442C63.2104 53.5835 60.8228 55.6524 58.0116 57.0107C66.3013 58.3483 73.6434 61.7947 78.3917 66.8055H92.7222C97.1405 66.8055 100.739 62.9232 98.0474 59.4195C93.7473 53.8221 84.7119 49.9669 74.2616 49.9669C70.9764 49.9669 67.831 50.3479 64.9286 51.0442ZM51.8424 60.4196C51.3006 60.4005 50.7549 60.3908 50.2058 60.3908C50.0999 60.3908 49.9942 60.3911 49.8887 60.3919C49.8887 60.3919 49.8887 60.3919 49.8887 60.3919" fill="white"/>
<path fill-rule="evenodd" clip-rule="evenodd" d="M25.741 45.9577C18.6555 45.9577 12.9116 40.2138 12.9116 33.1283C12.9116 26.0429 18.6555 20.2989 25.741 20.2989C31.3326 20.2989 36.0887 23.8761 37.8456 28.8669C34.3474 32.0171 32.156 36.5323 32.156 41.5476C32.156 42.4237 32.2228 43.2846 32.3519 44.1255C30.4212 45.2887 28.1592 45.9577 25.741 45.9577ZM35.0714 51.0442C36.7896 53.5835 39.1772 55.6524 41.9884 57.0107C33.6987 58.3483 26.3566 61.7947 21.6083 66.8055H7.27782C2.85954 66.8055 -0.73912 62.9232 1.95256 59.4195C6.25268 53.8221 15.2881 49.9669 25.7384 49.9669C29.0236 49.9669 32.169 50.3479 35.0714 51.0442ZM48.1576 60.4196C48.6994 60.4005 49.2451 60.3908 49.7942 60.3908C49.9001 60.3908 50.0058 60.3911 50.1113 60.3919C50.1113 60.3919 50.1113 60.3919 50.1113 60.3919" fill="white"/>
<path d="M77.9512 73.3571C80.1055 77.2147 76.4183 81 72 81H28C23.5817 81 19.8945 77.2147 22.0488 73.3571C26.4152 65.5383 37.2836 60 50 60C62.7164 60 73.5848 65.5383 77.9512 73.3571Z" fill="white"/>
<ellipse cx="50" cy="41.5" rx="14" ry="14.5" fill="white"/>
</svg>
