<svg width="100" height="100" viewBox="0 0 100 100" fill="none" xmlns="http://www.w3.org/2000/svg">
<g clip-path="url(#clip0_4_110)">
<circle cx="50" cy="77" r="6" fill="white"/>
<rect x="44" y="19" width="12" height="44" rx="6" fill="white"/>
<path d="M45.7905 6.07321C48.4858 4.95678 51.5142 4.95678 54.2095 6.07321L78.0844 15.9625C80.7797 17.0789 82.9211 19.2203 84.0375 21.9157L93.9268 45.7905C95.0432 48.4858 95.0432 51.5142 93.9268 54.2095L84.0375 78.0844C82.9211 80.7797 80.7797 82.9211 78.0844 84.0375L54.2095 93.9268C51.5142 95.0432 48.4858 95.0432 45.7905 93.9268L21.9157 84.0375C19.2203 82.9211 17.0789 80.7797 15.9625 78.0844L6.07321 54.2095C4.95678 51.5142 4.95678 48.4858 6.07321 45.7905L15.9625 21.9157C17.0789 19.2203 19.2203 17.0789 21.9156 15.9625L45.7905 6.07321Z" stroke="white" stroke-width="8"/>
</g>
<defs>
<clipPath id="clip0_4_110">
<rect width="100" height="100" fill="white"/>
</clipPath>
</defs>
</svg>
