<svg width="100" height="100" viewBox="0 0 100 100" fill="none" xmlns="http://www.w3.org/2000/svg">
<g clip-path="url(#clip0_21_19)">
<path fill-rule="evenodd" clip-rule="evenodd" d="M6.82843 63.3284C5.26633 64.8905 2.73367 64.8905 1.17157 63.3284C-0.390526 61.7663 -0.390526 59.2337 1.17157 57.6716L14.1716 44.6716L17 41.8431L19.8284 44.6716L32.8284 57.6716C34.3905 59.2337 34.3905 61.7663 32.8284 63.3284C31.2663 64.8905 28.7337 64.8905 27.1716 63.3284L21 57.1569V67C21 77.4934 29.5066 86 40 86H46V34.5742C44.051 33.956 42.2172 32.8741 40.6716 31.3284C35.5196 26.1765 35.5196 17.8235 40.6716 12.6716C45.8235 7.51963 54.1765 7.51963 59.3284 12.6716C64.4804 17.8235 64.4804 26.1765 59.3284 31.3284C57.7828 32.8741 55.949 33.956 54 34.5742V86H60C70.4934 86 79 77.4934 79 67V56.1569L72.8284 62.3284C71.2663 63.8905 68.7337 63.8905 67.1716 62.3284C65.6095 60.7663 65.6095 58.2337 67.1716 56.6716L80.1716 43.6716L83 40.8431L85.8284 43.6716L98.8284 56.6716C100.391 58.2337 100.391 60.7663 98.8284 62.3284C97.2663 63.8905 94.7337 63.8905 93.1716 62.3284L87 56.1569V67C87 81.9117 74.9117 94 60 94H50H40C25.0883 94 13 81.9117 13 67V57.1569L6.82843 63.3284ZM46.3284 18.3284C44.3007 20.3562 44.3007 23.6438 46.3284 25.6716C48.3562 27.6993 51.6438 27.6993 53.6716 25.6716C55.6993 23.6438 55.6993 20.3562 53.6716 18.3284C51.6438 16.3007 48.3562 16.3007 46.3284 18.3284Z" fill="white"/>
</g>
<defs>
<clipPath id="clip0_21_19">
<rect width="100" height="100" fill="white" transform="matrix(-1 0 0 1 100 0)"/>
</clipPath>
</defs>
</svg>
