<svg width="100" height="100" viewBox="0 0 100 100" fill="none" xmlns="http://www.w3.org/2000/svg">
<path d="M96 54C98.2091 54 100 52.2091 100 50C100 47.7909 98.2091 46 96 46V54ZM1.17157 47.1716C-0.390524 48.7337 -0.390524 51.2663 1.17157 52.8284L26.6274 78.2843C28.1895 79.8464 30.7222 79.8464 32.2843 78.2843C33.8464 76.7222 33.8464 74.1895 32.2843 72.6274L9.65685 50L32.2843 27.3726C33.8464 25.8105 33.8464 23.2778 32.2843 21.7157C30.7222 20.1536 28.1895 20.1536 26.6274 21.7157L1.17157 47.1716ZM96 46L4 46L4 54L96 54V46Z" fill="white"/>
</svg>
