<svg width="100" height="100" viewBox="0 0 100 100" fill="none" xmlns="http://www.w3.org/2000/svg">
<path d="M20.3015 14.6447C18.7394 13.0826 16.2067 13.0826 14.6446 14.6447C13.0825 16.2068 13.0825 18.7394 14.6446 20.3015L20.3015 14.6447ZM82.5269 86.5269C84.736 86.5269 86.5269 84.736 86.5269 82.5269L86.5269 46.5269C86.5269 44.3178 84.736 42.5269 82.5269 42.5269C80.3177 42.5269 78.5269 44.3178 78.5269 46.5269L78.5269 78.5269L46.5269 78.5269C44.3177 78.5269 42.5269 80.3178 42.5269 82.5269C42.5269 84.736 44.3177 86.5269 46.5269 86.5269L82.5269 86.5269ZM14.6446 20.3015L79.6984 85.3553L85.3553 79.6985L20.3015 14.6447L14.6446 20.3015Z" fill="white"/>
</svg>
