<svg width="100" height="100" viewBox="0 0 100 100" fill="none" xmlns="http://www.w3.org/2000/svg">
<g clip-path="url(#clip0_26_10)">
<path d="M79.118 3.9675C79.1359 1.75843 80.9413 -0.0178195 83.1503 0.000128965C85.3594 0.0180775 87.1356 1.82343 87.1177 4.0325L79.118 3.9675ZM14.1944 72.9693C12.6197 71.42 12.5991 68.8874 14.1485 67.3127L39.3969 41.6511C40.9463 40.0764 43.4789 40.0558 45.0536 41.6052C46.6283 43.1546 46.6489 45.6871 45.0995 47.2619L22.6564 70.0721L45.4667 92.5152C47.0414 94.0646 47.062 96.5972 45.5126 98.1719C43.9633 99.7466 41.4307 99.7671 39.856 98.2178L14.1944 72.9693ZM87.1177 4.0325L86.8166 41.0864L78.8169 41.0214L79.118 3.9675L87.1177 4.0325ZM54.0855 73.8172L17.0322 74.1179L16.9673 66.1182L54.0206 65.8175L54.0855 73.8172ZM86.8166 41.0864C86.6703 59.1023 72.1014 73.671 54.0855 73.8172L54.0206 65.8175C67.669 65.7067 78.706 54.6698 78.8169 41.0214L86.8166 41.0864Z" fill="white"/>
</g>
<defs>
<clipPath id="clip0_26_10">
<rect width="100" height="100" fill="white" transform="matrix(-1 0 0 1 100 0)"/>
</clipPath>
</defs>
</svg>
