<svg width="100" height="100" viewBox="0 0 100 100" fill="none" xmlns="http://www.w3.org/2000/svg">
<g clip-path="url(#clip0_26_16)">
<path d="M20.5266 96.0325C20.5086 98.2416 18.7033 100.018 16.4942 99.9999C14.2851 99.9819 12.5089 98.1766 12.5268 95.9675L20.5266 96.0325ZM85.4501 27.0307C87.0249 28.58 87.0454 31.1126 85.496 32.6873L60.2476 58.3489C58.6982 59.9236 56.1657 59.9442 54.5909 58.3948C53.0162 56.8454 52.9957 54.3129 54.545 52.7381L76.9881 29.9279L54.1778 7.48479C52.6031 5.93542 52.5825 3.40285 54.1319 1.82812C55.6813 0.253402 58.2139 0.232851 59.7886 1.78222L85.4501 27.0307ZM12.5268 95.9675L12.8279 58.9136L20.8276 58.9786L20.5266 96.0325L12.5268 95.9675ZM45.559 26.1828L82.6123 25.8821L82.6772 33.8818L45.6239 34.1825L45.559 26.1828ZM12.8279 58.9136C12.9743 40.8977 27.5432 26.329 45.559 26.1828L45.6239 34.1825C31.9756 34.2933 20.9385 45.3302 20.8276 58.9786L12.8279 58.9136Z" fill="white"/>
</g>
<defs>
<clipPath id="clip0_26_16">
<rect width="100" height="100" fill="white" transform="translate(100 100) rotate(-180)"/>
</clipPath>
</defs>
</svg>
