<svg width="100" height="100" viewBox="0 0 100 100" fill="none" xmlns="http://www.w3.org/2000/svg">
<g clip-path="url(#clip0_26_12)">
<path d="M20.5266 3.9675C20.5086 1.75843 18.7033 -0.0178195 16.4942 0.000128965C14.2851 0.0180775 12.5089 1.82343 12.5268 4.0325L20.5266 3.9675ZM85.4501 72.9693C87.0249 71.42 87.0454 68.8874 85.496 67.3127L60.2476 41.6511C58.6982 40.0764 56.1657 40.0558 54.5909 41.6052C53.0162 43.1546 52.9957 45.6871 54.545 47.2619L76.9881 70.0721L54.1778 92.5152C52.6031 94.0646 52.5825 96.5972 54.1319 98.1719C55.6813 99.7466 58.2139 99.7671 59.7886 98.2178L85.4501 72.9693ZM12.5268 4.0325L12.8279 41.0864L20.8276 41.0214L20.5266 3.9675L12.5268 4.0325ZM45.559 73.8172L82.6123 74.1179L82.6772 66.1182L45.6239 65.8175L45.559 73.8172ZM12.8279 41.0864C12.9743 59.1023 27.5432 73.671 45.559 73.8172L45.6239 65.8175C31.9756 65.7067 20.9385 54.6698 20.8276 41.0214L12.8279 41.0864Z" fill="white"/>
</g>
<defs>
<clipPath id="clip0_26_12">
<rect width="100" height="100" fill="white" transform="matrix(-1 0 0 1 100 0)"/>
</clipPath>
</defs>
</svg>
