<svg width="100" height="100" viewBox="0 0 100 100" fill="none" xmlns="http://www.w3.org/2000/svg">
<path d="M79.6985 85.3553C81.2606 86.9174 83.7933 86.9174 85.3554 85.3553C86.9175 83.7932 86.9175 81.2606 85.3554 79.6985L79.6985 85.3553ZM17.4731 13.4731C15.264 13.4731 13.4731 15.2639 13.4731 17.4731L13.4731 53.4731C13.4731 55.6822 15.264 57.4731 17.4731 57.4731C19.6823 57.4731 21.4731 55.6822 21.4731 53.4731L21.4731 21.4731L53.4731 21.4731C55.6823 21.4731 57.4731 19.6822 57.4731 17.4731C57.4731 15.2639 55.6823 13.4731 53.4731 13.4731L17.4731 13.4731ZM85.3554 79.6985L20.3016 14.6447L14.6447 20.3015L79.6985 85.3553L85.3554 79.6985Z" fill="white"/>
</svg>
