<svg width="100" height="100" viewBox="0 0 100 100" fill="none" xmlns="http://www.w3.org/2000/svg">
<path d="M46 4C46 1.79086 47.7909 0 50 0C52.2091 0 54 1.79086 54 4H46ZM52.8284 98.8284C51.2663 100.391 48.7337 100.391 47.1716 98.8284L21.7157 73.3726C20.1536 71.8105 20.1536 69.2778 21.7157 67.7157C23.2778 66.1536 25.8105 66.1536 27.3726 67.7157L50 90.3431L72.6274 67.7157C74.1895 66.1536 76.7222 66.1536 78.2843 67.7157C79.8464 69.2778 79.8464 71.8105 78.2843 73.3726L52.8284 98.8284ZM54 4L54 96H46L46 4H54Z" fill="white"/>
</svg>
