<svg width="100" height="100" viewBox="0 0 100 100" fill="none" xmlns="http://www.w3.org/2000/svg">
<path d="M4 54C1.79086 54 0 52.2091 0 50C0 47.7909 1.79086 46 4 46V54ZM98.8284 47.1716C100.391 48.7337 100.391 51.2663 98.8284 52.8284L73.3726 78.2843C71.8105 79.8464 69.2778 79.8464 67.7157 78.2843C66.1536 76.7222 66.1536 74.1895 67.7157 72.6274L90.3431 50L67.7157 27.3726C66.1536 25.8105 66.1536 23.2778 67.7157 21.7157C69.2778 20.1536 71.8105 20.1536 73.3726 21.7157L98.8284 47.1716ZM4 46L96 46V54L4 54V46Z" fill="white"/>
</svg>
