<svg width="100" height="100" viewBox="0 0 100 100" fill="none" xmlns="http://www.w3.org/2000/svg">
<g clip-path="url(#clip0_26_14)">
<path d="M79.4734 96.0325C79.4914 98.2416 81.2967 100.018 83.5058 99.9999C85.7149 99.9819 87.4911 98.1766 87.4732 95.9675L79.4734 96.0325ZM14.5499 27.0307C12.9751 28.58 12.9546 31.1126 14.504 32.6873L39.7524 58.3489C41.3018 59.9236 43.8343 59.9442 45.4091 58.3948C46.9838 56.8454 47.0043 54.3129 45.455 52.7381L23.0119 29.9279L45.8222 7.48479C47.3969 5.93542 47.4175 3.40285 45.8681 1.82812C44.3187 0.253402 41.7861 0.232851 40.2114 1.78222L14.5499 27.0307ZM87.4732 95.9675L87.1721 58.9136L79.1724 58.9786L79.4734 96.0325L87.4732 95.9675ZM54.441 26.1828L17.3877 25.8821L17.3228 33.8818L54.3761 34.1825L54.441 26.1828ZM87.1721 58.9136C87.0257 40.8977 72.4568 26.329 54.441 26.1828L54.3761 34.1825C68.0244 34.2933 79.0615 45.3302 79.1724 58.9786L87.1721 58.9136Z" fill="white"/>
</g>
<defs>
<clipPath id="clip0_26_14">
<rect width="100" height="100" fill="white" transform="matrix(1 0 0 -1 0 100)"/>
</clipPath>
</defs>
</svg>
