<svg width="100" height="100" viewBox="0 0 100 100" fill="none" xmlns="http://www.w3.org/2000/svg">
<path d="M20.3015 85.3553C18.7394 86.9174 16.2067 86.9174 14.6446 85.3553C13.0825 83.7932 13.0825 81.2606 14.6446 79.6985L20.3015 85.3553ZM82.5269 13.4731C84.736 13.4731 86.5269 15.2639 86.5269 17.4731L86.5269 53.4731C86.5269 55.6822 84.736 57.4731 82.5269 57.4731C80.3177 57.4731 78.5269 55.6822 78.5269 53.4731L78.5269 21.4731L46.5269 21.4731C44.3177 21.4731 42.5269 19.6822 42.5269 17.4731C42.5269 15.2639 44.3177 13.4731 46.5269 13.4731L82.5269 13.4731ZM14.6446 79.6985L79.6984 14.6447L85.3553 20.3015L20.3015 85.3553L14.6446 79.6985Z" fill="white"/>
</svg>
