<svg width="100" height="100" viewBox="0 0 100 100" fill="none" xmlns="http://www.w3.org/2000/svg">
<path d="M54 96C54 98.2091 52.2091 100 50 100C47.7909 100 46 98.2091 46 96H54ZM47.1716 1.17157C48.7337 -0.390524 51.2663 -0.390524 52.8284 1.17157L78.2843 26.6274C79.8464 28.1895 79.8464 30.7222 78.2843 32.2843C76.7222 33.8464 74.1895 33.8464 72.6274 32.2843L50 9.65685L27.3726 32.2843C25.8105 33.8464 23.2778 33.8464 21.7157 32.2843C20.1536 30.7222 20.1536 28.1895 21.7157 26.6274L47.1716 1.17157ZM46 96L46 4L54 4L54 96H46Z" fill="white"/>
</svg>
