<svg width="100" height="100" viewBox="0 0 100 100" fill="none" xmlns="http://www.w3.org/2000/svg">
<path d="M79.6985 14.6447C81.2606 13.0826 83.7933 13.0826 85.3554 14.6447C86.9175 16.2068 86.9175 18.7394 85.3554 20.3015L79.6985 14.6447ZM17.4731 86.5269C15.264 86.5269 13.4731 84.736 13.4731 82.5269L13.4731 46.5269C13.4731 44.3178 15.264 42.5269 17.4731 42.5269C19.6823 42.5269 21.4731 44.3178 21.4731 46.5269L21.4731 78.5269L53.4731 78.5269C55.6823 78.5269 57.4731 80.3178 57.4731 82.5269C57.4731 84.736 55.6823 86.5269 53.4731 86.5269L17.4731 86.5269ZM85.3554 20.3015L20.3016 85.3553L14.6447 79.6985L79.6985 14.6447L85.3554 20.3015Z" fill="white"/>
</svg>
