<svg width="100" height="100" viewBox="0 0 100 100" fill="none" xmlns="http://www.w3.org/2000/svg">
<path fill-rule="evenodd" clip-rule="evenodd" d="M48.5836 31H48.5838L47.8852 38H47.885L48.5836 31ZM63.9327 43H63.9329C64.6759 43 65.1594 43.7816 64.8277 44.4465L63.9329 46.2397L63.0971 47.9146L63.0545 48L51.5777 71H51.5776L64.8275 44.4465C65.1593 43.7816 64.6758 43 63.9327 43ZM53.6086 31L52.91 38H63.9329C68.391 38 71.2921 42.6898 69.3016 46.6789L57.1656 71H85C87.7614 71 90 68.7614 90 66V36C90 33.2386 87.7614 31 85 31H53.6086ZM28.0451 62H39.068L38.1698 71H6C3.23858 71 1 68.7614 1 66V36C1 33.2386 3.23858 31 6 31H33.8144L22.6764 53.3211C20.6859 57.3102 23.587 62 28.0451 62Z" fill="white"/>
<path fill-rule="evenodd" clip-rule="evenodd" d="M94 43V60H97C98.1046 60 99 59.1046 99 58V45C99 43.8954 98.1046 43 97 43H94Z" fill="white"/>
<path fill-rule="evenodd" clip-rule="evenodd" d="M44.9398 56.7894H28.0012C27.2542 56.7894 26.771 56.0003 27.1104 55.3349L48.9404 12.5481C49.4435 11.5621 50.9384 12.0029 50.826 13.1041L47.7969 42.7894H64.7355C65.4824 42.7894 65.9657 43.5785 65.6263 44.2439L43.7962 87.0307C43.2932 88.0167 41.7983 87.5759 41.9107 86.4747L44.9398 56.7894Z" fill="white"/>
</svg>
