<svg width="100" height="100" viewBox="0 0 100 100" fill="none" xmlns="http://www.w3.org/2000/svg">
<path fill-rule="evenodd" clip-rule="evenodd" d="M91.9998 43V60H96.9995C98.1041 60 98.9995 59.1046 98.9995 58V45C98.9995 43.8954 98.1041 43 96.9995 43H91.9998Z" fill="white"/>
<path fill-rule="evenodd" clip-rule="evenodd" d="M41.4896 71L42.9397 56.7894H26.0011C25.2541 56.7894 24.7709 56.0003 25.1103 55.3349L37.5261 31H46.9998L45.7968 42.7894H62.7354C63.4823 42.7894 63.9656 43.5785 63.6262 44.2439L49.9751 71H41.4896ZM56.7109 71H79C83.4183 71 87 67.4183 87 63V39C87 34.5817 83.4183 31 79 31H53.031L52.4402 36.7894H62.7354C67.964 36.7894 71.347 42.3133 68.9707 46.9707L56.7109 71ZM30.7903 31H9C4.58172 31 1 34.5817 1 39V63C1 67.4183 4.58172 71 9 71H35.4585L36.2963 62.7894H26.0011C20.7725 62.7894 17.3895 57.2655 19.7657 52.6081L30.7903 31Z" fill="white"/>
<path fill-rule="evenodd" clip-rule="evenodd" d="M42.9398 56.7894H26.0012C25.2542 56.7894 24.771 56.0003 25.1104 55.3349L46.9404 12.5481C47.4435 11.5621 48.9384 12.0029 48.826 13.1041L45.7969 42.7894H62.7355C63.4824 42.7894 63.9657 43.5785 63.6263 44.2439L41.7962 87.0307C41.2932 88.0167 39.7983 87.5759 39.9107 86.4747L42.9398 56.7894Z" fill="white"/>
</svg>
