<svg width="100" height="100" viewBox="0 0 100 100" fill="none" xmlns="http://www.w3.org/2000/svg">
<g clip-path="url(#clip0_4_144)">
<path d="M50 98C55.5228 98 60 93.5229 60 88H40C40 93.5229 44.4772 98 50 98Z" fill="white"/>
<path d="M4 4L96 96" stroke="white" stroke-width="8" stroke-linecap="round"/>
<path fill-rule="evenodd" clip-rule="evenodd" d="M16.4116 27.0183C15.4693 30.4984 14.9523 34.3591 14.9523 38.6018C14.9523 56.0528 11.6358 66.9455 8.12664 73.5865C6.64806 76.3847 9.52851 83.1415 12.6933 83.1415H72.5348L16.4116 27.0183ZM90.5039 79.8974C91.4048 77.8834 91.6373 75.4222 90.6861 74.0324C86.1183 67.3579 81.4303 56.2953 80.6666 38.6018C80.6666 2.36489 41.7747 -6.42683 23.8305 13.224L90.5039 79.8974Z" fill="white"/>
</g>
<defs>
<clipPath id="clip0_4_144">
<rect width="100" height="100" fill="white"/>
</clipPath>
</defs>
</svg>
