<svg width="100" height="100" viewBox="0 0 100 100" fill="none" xmlns="http://www.w3.org/2000/svg">
<g clip-path="url(#clip0_4_144)">
<path d="M49 96.0188C54.5228 96.0188 59 91.5417 59 86.0189H39C39 91.5417 43.4772 96.0188 49 96.0188Z" fill="white"/>
<path d="M4 4L96 96" stroke="white" stroke-width="8" stroke-linecap="round"/>
<path fill-rule="evenodd" clip-rule="evenodd" d="M16.4117 27.0183C15.4694 30.4984 14.9524 34.3591 14.9524 38.6018C14.9524 59.9384 10.3524 71.471 6.45004 77.4156C5.31032 79.1518 6.92056 83.1415 8.99741 83.1415H72.5349L16.4117 27.0183ZM91.4413 80.8347C91.7533 79.8639 91.7349 78.794 91.2222 78.071C87.0824 72.2326 81.6116 60.492 80.6667 38.6018C80.6667 2.36489 41.7748 -6.42684 23.8306 13.224L91.4413 80.8347Z" fill="white"/>
</g>
<defs>
<clipPath id="clip0_4_144">
<rect width="100" height="100" fill="white"/>
</clipPath>
</defs>
</svg>
