<svg width="100" height="100" viewBox="0 0 100 100" fill="none" xmlns="http://www.w3.org/2000/svg">
<g clip-path="url(#clip0_26_35)">
<path d="M33.2814 8C33.2814 3.58172 29.6997 0 25.2814 0C20.8632 0 17.2814 3.58172 17.2814 8H33.2814ZM17.2814 92.16C17.2814 96.5783 20.8632 100.16 25.2814 100.16C29.6997 100.16 33.2814 96.5783 33.2814 92.16H17.2814ZM25.2814 42.08C20.8632 42.08 17.2814 45.6617 17.2814 50.08C17.2814 54.4983 20.8632 58.08 25.2814 58.08V42.08ZM25.2814 84.16C20.8632 84.16 17.2814 87.7417 17.2814 92.16C17.2814 96.5783 20.8632 100.16 25.2814 100.16V84.16ZM25.2814 0C20.8632 0 17.2814 3.58172 17.2814 8C17.2814 12.4183 20.8632 16 25.2814 16V0ZM25.2814 42.08C20.8632 42.08 17.2814 45.6617 17.2814 50.08C17.2814 54.4983 20.8632 58.08 25.2814 58.08V42.08ZM17.2814 8V92.16H33.2814V8H17.2814ZM53.6397 42.08H25.2814V58.08H53.6397V42.08ZM25.2814 100.16H53.6397V84.16H25.2814V100.16ZM53.6397 100.16C69.678 100.16 82.6797 87.1583 82.6797 71.12H66.6797C66.6797 78.3218 60.8415 84.16 53.6397 84.16V100.16ZM53.6397 58.08C60.8415 58.08 66.6797 63.9182 66.6797 71.12H82.6797C82.6797 55.0816 69.678 42.08 53.6397 42.08V58.08ZM41.7475 0H25.2814V16H41.7475V0ZM25.2814 58.08H41.7475V42.08H25.2814V58.08ZM41.7475 58.08C57.7859 58.08 70.7875 45.0783 70.7875 29.04H54.7875C54.7875 36.2418 48.9493 42.08 41.7475 42.08V58.08ZM41.7475 16C48.9493 16 54.7875 21.8382 54.7875 29.04H70.7875C70.7875 13.0017 57.7859 0 41.7475 0V16Z" fill="white"/>
</g>
<defs>
<clipPath id="clip0_26_35">
<rect width="100" height="100" fill="white" transform="matrix(-1 0 0 -1 100 100)"/>
</clipPath>
</defs>
</svg>
