<svg width="100" height="100" viewBox="0 0 100 100" fill="none" xmlns="http://www.w3.org/2000/svg">
<path fill-rule="evenodd" clip-rule="evenodd" d="M46.5289 1.18845C48.4362 0.425535 50.5638 0.425535 52.4711 1.18845L91.9711 16.9885C95.0084 18.2034 97 21.145 97 24.4163V75.5837C97 78.855 95.0084 81.7966 91.9711 83.0116L52.471 98.8116C50.5638 99.5745 48.4362 99.5745 46.529 98.8117L7.02907 83.0129C3.9917 81.7981 2 78.8564 2 75.585V24.4163C2 21.145 3.99161 18.2034 7.02888 16.9884L46.5289 1.18845ZM10.1611 22.2644C10.9815 20.2133 13.3094 19.2156 15.3606 20.0361L27.2356 24.7861L49.5 33.6919L71.7644 24.7861L83.6394 20.0361C85.6906 19.2156 88.0185 20.2133 88.8389 22.2644C89.6594 24.3156 88.6617 26.6435 86.6106 27.4639L74.7356 32.2139L53.5 40.7081V69V84.5C53.5 86.7091 51.7091 88.5 49.5 88.5C47.2909 88.5 45.5 86.7091 45.5 84.5V69V40.7081L24.2644 32.2139L12.3894 27.4639C10.3383 26.6435 9.34064 24.3156 10.1611 22.2644Z" fill="white"/>
</svg>
