<svg width="100" height="100" viewBox="0 0 100 100" fill="none" xmlns="http://www.w3.org/2000/svg">
<path fill-rule="evenodd" clip-rule="evenodd" d="M12 3C5.37258 3 0 8.37258 0 15V27V84.2778C0 90.9052 5.37258 96.2778 12 96.2778H88C94.6274 96.2778 100 90.9052 100 84.2778V27V15C100 8.37258 94.6274 3 88 3H12ZM8 15C8 12.7909 9.79086 11 12 11H88C90.2091 11 92 12.7909 92 15V23H8V15ZM8 31H92V84.2778C92 86.4869 90.2091 88.2778 88 88.2778H12C9.79086 88.2778 8 86.4869 8 84.2778V31ZM70 39C68.8954 39 68 39.8954 68 41V53C68 54.1046 68.8954 55 70 55H82C83.1046 55 84 54.1046 84 53V41C84 39.8954 83.1046 39 82 39H70ZM42 41C42 39.8954 42.8954 39 44 39H56C57.1046 39 58 39.8954 58 41V53C58 54.1046 57.1046 55 56 55H44C42.8954 55 42 54.1046 42 53V41ZM18 39C16.8954 39 16 39.8954 16 41V53C16 54.1046 16.8954 55 18 55H30C31.1046 55 32 54.1046 32 53V41C32 39.8954 31.1046 39 30 39H18ZM42 67C42 65.8954 42.8954 65 44 65H56C57.1046 65 58 65.8954 58 67V79C58 80.1046 57.1046 81 56 81H44C42.8954 81 42 80.1046 42 79V67ZM18 65C16.8954 65 16 65.8954 16 67V79C16 80.1046 16.8954 81 18 81H30C31.1046 81 32 80.1046 32 79V67C32 65.8954 31.1046 65 30 65H18Z" fill="white"/>
</svg>
