<svg width="100" height="100" viewBox="0 0 100 100" fill="none" xmlns="http://www.w3.org/2000/svg">
<path fill-rule="evenodd" clip-rule="evenodd" d="M7.99995 21.5C3.58167 21.5 0 25.0817 0 29.5V70.5C0 74.9183 3.58172 78.5 8 78.5H92C96.4183 78.5 100 74.9183 100 70.5V29.5C100 25.0817 96.4183 21.5 92 21.5H77.7833C75.9808 21.5 74.231 20.8912 72.8177 19.7724L65.1823 13.7276C63.769 12.6088 62.0192 12 60.2167 12H50H39.7823C37.9798 12 36.231 12.6088 34.8177 13.7276L27.1823 19.7724C25.769 20.8912 24.0196 21.5 22.217 21.5H7.99995ZM50 71C61.598 71 71 61.598 71 50C71 38.402 61.598 29 50 29C38.402 29 29 38.402 29 50C29 61.598 38.402 71 50 71Z" fill="white"/>
</svg>
