<svg width="100" height="100" viewBox="0 0 100 100" fill="none" xmlns="http://www.w3.org/2000/svg">
<g clip-path="url(#clip0_27_54)">
<path fill-rule="evenodd" clip-rule="evenodd" d="M7.38142 21.5236C3.25219 21.8393 0 25.2898 0 29.5V70.5C0 74.9183 3.58172 78.5 8 78.5H64.3579L55.9909 70.1331C54.0925 70.6971 52.0816 71 50 71C38.402 71 29 61.598 29 50C29 47.9184 29.3029 45.9075 29.8669 44.0091L7.38142 21.5236ZM30.9398 16.7977L44.0091 29.8669C45.9075 29.3029 47.9184 29 50 29C61.598 29 71 38.402 71 50C71 52.0816 70.6971 54.0925 70.1331 55.9909L92.6186 78.4764C96.7478 78.1607 100 74.7101 100 70.5V29.5C100 25.0817 96.4183 21.5 92 21.5H77.7833C75.9808 21.5 74.231 20.8912 72.8177 19.7724L65.1823 13.7276C63.769 12.6088 62.0192 12 60.2167 12H50H39.7823C37.9798 12 36.231 12.6088 34.8177 13.7276L30.9398 16.7977Z" fill="white"/>
<path d="M4 4L96 96" stroke="white" stroke-width="8" stroke-linecap="round"/>
</g>
<defs>
<clipPath id="clip0_27_54">
<rect width="100" height="100" fill="white" transform="translate(100 100) rotate(-180)"/>
</clipPath>
</defs>
</svg>
