<svg width="100" height="100" viewBox="0 0 100 100" fill="none" xmlns="http://www.w3.org/2000/svg">
<ellipse cx="30.5" cy="42" rx="14.5" ry="15" fill="white"/>
<rect x="33" y="12" width="12" height="4" rx="2" transform="rotate(90 33 12)" fill="white"/>
<rect x="1" y="41" width="12" height="3" rx="1.5" fill="white"/>
<rect x="33" y="12" width="12" height="4" rx="2" transform="rotate(90 33 12)" fill="white"/>
<rect x="42.4048" y="28.4703" width="11.6661" height="2.59247" rx="1.29624" transform="rotate(-45 42.4048 28.4703)" fill="white"/>
<rect x="8.94983" y="61.9253" width="11.6661" height="2.59247" rx="1.29624" transform="rotate(-45 8.94983 61.9253)" fill="white"/>
<rect x="10.783" y="19.7628" width="11.6661" height="2.59247" rx="1.29624" transform="rotate(45 10.783 19.7628)" fill="white"/>
<path fill-rule="evenodd" clip-rule="evenodd" d="M30.4893 61.5053C41.394 61.5053 50.234 52.6653 50.234 41.7606C50.234 40.4815 50.1124 39.2307 49.88 38.0193C51.0863 37.7117 52.3531 37.5479 53.6596 37.5479C59.8401 37.5479 65.1325 41.2148 67.3246 46.4156C69.3315 44.824 71.9104 43.867 74.7234 43.867C80.1711 43.867 84.7406 47.4563 85.9781 52.2926H86.3085V52.3021C93.917 52.5791 100 58.8345 100 66.5106C100 74.1868 93.917 80.4421 86.3085 80.7192V80.7287H85.7819H39.4415H38.9149V80.7192C31.3064 80.4421 25.2234 74.1868 25.2234 66.5106C25.2234 64.5801 25.6082 62.7394 26.3052 61.0611C27.6538 61.3521 29.0537 61.5053 30.4893 61.5053ZM29.3805 56.4642C29.7465 56.4915 30.1163 56.5053 30.4893 56.5053C38.6326 56.5053 45.234 49.9039 45.234 41.7606C45.234 41.2181 45.2047 40.6823 45.1476 40.1549C41.3765 42.7302 38.9149 46.9709 38.9149 51.766C38.9149 51.9423 38.9182 52.1178 38.9248 52.2926H38.9149V52.3021C35.1943 52.4376 31.8386 54.0026 29.3805 56.4642Z" fill="white"/>
</svg>
