<svg width="100" height="100" viewBox="0 0 100 100" fill="none" xmlns="http://www.w3.org/2000/svg">
<g clip-path="url(#clip0_3_22)">
<path fill-rule="evenodd" clip-rule="evenodd" d="M29.205 71.41C42.0208 71.41 52.41 61.0208 52.41 48.205C52.41 45.051 51.7808 42.0439 50.6409 39.3025C51.8248 38.9975 53.0682 38.8351 54.3505 38.8351C60.3058 38.8351 65.421 42.3394 67.6427 47.3471C69.5728 45.7399 72.0549 44.7732 74.7629 44.7732C80.1494 44.7732 84.6426 48.5983 85.6742 53.6804H85.8969C93.6858 53.6804 100 59.9946 100 67.7835C100 75.5724 93.6858 81.8866 85.8969 81.8866H40.6185V81.8674C40.3727 81.8801 40.1253 81.8866 39.8763 81.8866C33.2714 81.8866 27.727 77.3462 26.1939 71.2164C27.1796 71.3441 28.1846 71.41 29.205 71.41Z" fill="white"/>
<path fill-rule="evenodd" clip-rule="evenodd" d="M29.5301 19C30.3374 19 30.992 19.6545 30.992 20.4619V29.2332C30.992 30.0406 30.3374 30.6951 29.5301 30.6951C28.7227 30.6951 28.0682 30.0406 28.0682 29.2332V20.4619C28.0682 19.6545 28.7227 19 29.5301 19ZM44.4413 48.2377C44.4413 56.6344 37.6344 63.4413 29.2377 63.4413C20.841 63.4413 14.0341 56.6344 14.0341 48.2377C14.0341 39.841 20.841 33.0341 29.2377 33.0341C37.6344 33.0341 44.4413 39.841 44.4413 48.2377ZM1.46188 47.0682C0.654508 47.0682 0 47.7227 0 48.5301C0 49.3374 0.654509 49.9919 1.46188 49.9919H10.2332C11.0406 49.9919 11.6951 49.3374 11.6951 48.5301C11.6951 47.7227 11.0406 47.0682 10.2332 47.0682H1.46188ZM41.9602 34.152C41.4584 34.6539 41.4584 35.4676 41.9602 35.9695C42.4621 36.4714 43.2759 36.4714 43.7778 35.9695L50.139 29.6082C50.6409 29.1063 50.6409 28.2926 50.139 27.7907C49.6371 27.2888 48.8234 27.2888 48.3215 27.7907L41.9602 34.152ZM8.79069 69.139C8.2888 68.6372 8.2888 67.8234 8.79069 67.3215L15.152 60.9603C15.6539 60.4584 16.4676 60.4584 16.9695 60.9603C17.4714 61.4621 17.4714 62.2759 16.9695 62.7778L10.6082 69.139C10.1063 69.6409 9.29258 69.6409 8.79069 69.139ZM10.6082 27.3363C10.1063 26.8344 9.2926 26.8344 8.79071 27.3363C8.28882 27.8382 8.28882 28.6519 8.79071 29.1538L15.152 35.5151C15.6539 36.017 16.4676 36.017 16.9695 35.5151C17.4714 35.0132 17.4714 34.1995 16.9695 33.6976L10.6082 27.3363Z" fill="white"/>
<circle cx="29.2377" cy="48.2377" r="15.2036" fill="white"/>
</g>
<defs>
<clipPath id="clip0_3_22">
<rect width="100" height="100" fill="white"/>
</clipPath>
</defs>
</svg>
