<svg width="100" height="100" viewBox="0 0 100 100" fill="none" xmlns="http://www.w3.org/2000/svg">
<circle cx="22" cy="35" r="17" fill="white"/>
<circle cx="78" cy="35" r="17" fill="white"/>
<ellipse cx="39" cy="17" rx="18" ry="17" fill="white"/>
<ellipse cx="65" cy="21" rx="14" ry="13" fill="white"/>
<rect x="22" y="18" width="57" height="34" fill="white"/>
<path d="M50.707 73.8968C50.7598 73.3872 51.1893 73 51.7017 73H60.355C61.1049 73 61.588 73.7947 61.2428 74.4603L50.4261 95.3212C49.9178 96.3014 48.4298 95.8559 48.5436 94.7577L50.707 73.8968Z" fill="white"/>
<path d="M50.29 79.0995C50.2389 79.6107 49.8088 80 49.295 80H40.618C39.8747 80 39.3912 79.2177 39.7236 78.5528L50.5698 56.8603C51.0664 55.8672 52.5698 56.3022 52.4593 57.4071L50.29 79.0995Z" fill="white"/>
<path d="M50.5 80H49L50.5 73H52L50.5 80Z" fill="white"/>
</svg>
