<svg width="100" height="100" viewBox="0 0 100 100" fill="none" xmlns="http://www.w3.org/2000/svg">
<g clip-path="url(#clip0_7_22)">
<path fill-rule="evenodd" clip-rule="evenodd" d="M38.8041 1.79147C38.9109 0.773208 39.7694 0 40.7932 0H59.2068C60.2306 0 61.0891 0.773206 61.1959 1.79146L62.7299 16.4241C62.8954 18.0024 64.745 18.7685 65.9781 17.7695L77.307 8.59056C78.1025 7.94603 79.2563 8.00634 79.9803 8.73031L93.0007 21.7507C93.7246 22.4746 93.7849 23.6284 93.1404 24.4239L85.1186 34.3247C84.1196 35.5577 84.8857 37.4074 86.4641 37.5728L98.2085 38.8041C99.2268 38.9109 100 39.7694 100 40.7932V59.2068C100 60.2306 99.2268 61.0891 98.2085 61.1959L85.4362 62.5349C83.8579 62.7004 83.0918 64.55 84.0908 65.7831L92.6011 76.2868C93.2456 77.0823 93.1853 78.236 92.4613 78.96L79.441 91.9804C78.717 92.7043 77.5632 92.7646 76.7677 92.1201L65.8672 83.2883C64.6341 82.2893 62.7845 83.0554 62.619 84.6337L61.1959 98.2085C61.0891 99.2268 60.2306 100 59.2068 100H40.7932C39.7694 100 38.9109 99.2268 38.8041 98.2085L37.563 86.3697C37.3975 84.7914 35.5479 84.0252 34.3148 85.0243L24.9633 92.6011C24.1678 93.2456 23.014 93.1853 22.29 92.4613L9.26964 79.441C8.54568 78.717 8.48536 77.5632 9.12989 76.7677L17.8638 65.988C18.8629 64.7549 18.0967 62.9053 16.5184 62.7398L1.79147 61.1959C0.773208 61.0891 0 60.2306 0 59.2068V40.7932C0 39.7694 0.773205 38.9109 1.79146 38.8041L15.4906 37.3679C17.0689 37.2025 17.8351 35.3528 16.836 34.1198L8.59056 23.943C7.94603 23.1475 8.00634 21.9937 8.73031 21.2697L21.7507 8.24934C22.4746 7.52538 23.6284 7.46506 24.4239 8.10959L34.2039 16.0335C35.437 17.0326 37.2866 16.2664 37.4521 14.6881L38.8041 1.79147ZM50.625 66.25C59.2544 66.25 66.25 59.2544 66.25 50.625C66.25 41.9956 59.2544 35 50.625 35C41.9956 35 35 41.9956 35 50.625C35 59.2544 41.9956 66.25 50.625 66.25Z" fill="white"/>
</g>
<defs>
<clipPath id="clip0_7_22">
<rect width="100" height="100" fill="white"/>
</clipPath>
</defs>
</svg>
