<svg width="100" height="100" viewBox="0 0 100 100" fill="none" xmlns="http://www.w3.org/2000/svg">
<g clip-path="url(#clip0_23_11)">
<path d="M19 34H81C89.2843 34 96 27.2843 96 19V19C96 10.7157 89.2843 4 81 4V4C72.7157 4 66 10.7157 66 19V81C66 89.2843 72.7157 96 81 96V96C89.2843 96 96 89.2843 96 81V81C96 72.7157 89.2843 66 81 66H19C10.7157 66 4 72.7157 4 81V81C4 89.2843 10.7157 96 19 96V96C27.2843 96 34 89.2843 34 81V19C34 10.7157 27.2843 4 19 4V4C10.7157 4 4 10.7157 4 19V19C4 27.2843 10.7157 34 19 34Z" stroke="white" stroke-width="8"/>
</g>
<defs>
<clipPath id="clip0_23_11">
<rect width="100" height="100" fill="white"/>
</clipPath>
</defs>
</svg>
