<svg width="100" height="100" viewBox="0 0 100 100" fill="none" xmlns="http://www.w3.org/2000/svg">
<path fill-rule="evenodd" clip-rule="evenodd" d="M12 4C12 1.79086 13.7909 0 16 0H83.5556C85.7647 0 87.5555 1.79086 87.5555 4V83.7778C87.5555 85.9869 85.7647 87.7778 83.5555 87.7778H83V97C83 98.6569 81.6569 100 80 100H20C18.3431 100 17 98.6569 17 97V87.7778H16C13.7909 87.7778 12 85.9869 12 83.7778V4ZM78.3019 11.6875C76.038 9.4375 23.9621 9.4375 21.698 11.6875C19.434 13.9375 19.4335 51.0625 21.698 53.3125C23.9618 55.5625 76.0375 55.5625 78.3019 53.3125C80.5658 51.0625 80.5658 13.9375 78.3019 11.6875ZM51.7791 68.8889C50.6745 68.8889 49.7791 69.7843 49.7791 70.8889C49.7791 71.9935 50.6745 72.8889 51.7791 72.8889H77.7791C78.8837 72.8889 79.7791 71.9935 79.7791 70.8889C79.7791 69.7843 78.8837 68.8889 77.7791 68.8889H51.7791Z" fill="white"/>
</svg>
