<svg width="100" height="100" viewBox="0 0 100 100" fill="none" xmlns="http://www.w3.org/2000/svg">
<path fill-rule="evenodd" clip-rule="evenodd" d="M89.0529 13.6484C89.0535 13.6469 89.0537 13.6462 89.0536 13.6462C89.0534 13.6462 89.0528 13.6474 89.0516 13.6498C89.0506 13.6522 89.0491 13.6557 89.0473 13.6604C89.0502 13.6547 89.052 13.6507 89.0529 13.6484ZM87.6436 13.0687C88.2305 13.4695 88.5801 13.783 88.7844 14C88.5801 14.217 88.2305 14.5305 87.6436 14.9313C85.9839 16.065 83.2544 17.2846 79.4321 18.3888C71.8546 20.5779 61.0936 22 49 22C36.9064 22 26.1454 20.5779 18.5679 18.3888C14.7456 17.2846 12.0161 16.065 10.3564 14.9313C9.76952 14.5305 9.41992 14.217 9.21564 14C9.41992 13.783 9.76952 13.4695 10.3564 13.0687C12.0161 11.935 14.7456 10.7154 18.5679 9.61118C26.1454 7.42212 36.9064 6 49 6C61.0936 6 71.8546 7.42212 79.4321 9.61118C83.2544 10.7154 85.9839 11.935 87.6436 13.0687ZM8.94641 13.6462C8.9467 13.6461 8.94911 13.6509 8.95276 13.6605C8.94794 13.651 8.94612 13.6462 8.94641 13.6462ZM8.94641 14.3538C8.94612 14.3538 8.94794 14.349 8.95276 14.3395C8.94911 14.3491 8.9467 14.3539 8.94641 14.3538ZM89.0473 14.3396C89.0521 14.349 89.0539 14.3538 89.0536 14.3538C89.0533 14.3539 89.0509 14.3491 89.0473 14.3396ZM4 14V33.75C4 40.6536 24.1472 46.25 49 46.25C73.8528 46.25 94 40.6536 94 33.75V14V13.75C94 13.7909 93.9993 13.8317 93.9979 13.8725C93.7611 6.75153 73.7056 1 49 1C24.2944 1 4.23886 6.75154 4.00212 13.8725C4.00071 13.8317 4 13.7909 4 13.75V14Z" fill="white"/>
<path fill-rule="evenodd" clip-rule="evenodd" d="M49 53.75C73.8528 53.75 94 48.1536 94 41.25V61.25C94 68.1536 73.8528 73.75 49 73.75C24.1472 73.75 4 68.1536 4 61.25V41.25C4 48.1536 24.1472 53.75 49 53.75Z" fill="white"/>
<path fill-rule="evenodd" clip-rule="evenodd" d="M49 80C73.8528 80 94 74.4036 94 67.5V87.5C94 94.4036 73.8528 100 49 100C24.1472 100 4 94.4036 4 87.5V67.5C4 74.4036 24.1472 80 49 80Z" fill="white"/>
</svg>
