<svg width="100" height="100" viewBox="0 0 100 100" fill="none" xmlns="http://www.w3.org/2000/svg">
<rect x="5" y="82" width="90" height="8" rx="4" fill="white"/>
<path d="M54 11C54 8.79086 52.2091 7 50 7C47.7909 7 46 8.79086 46 11H54ZM47.1716 74.3284C48.7337 75.8905 51.2663 75.8905 52.8284 74.3284L78.2843 48.8726C79.8464 47.3105 79.8464 44.7778 78.2843 43.2157C76.7222 41.6536 74.1895 41.6536 72.6274 43.2157L50 65.8431L27.3726 43.2157C25.8105 41.6536 23.2778 41.6536 21.7157 43.2157C20.1536 44.7778 20.1536 47.3105 21.7157 48.8726L47.1716 74.3284ZM46 11V71.5H54V11H46Z" fill="white"/>
</svg>
