<svg width="100" height="100" viewBox="0 0 100 100" fill="none" xmlns="http://www.w3.org/2000/svg">
<g clip-path="url(#clip0_4_216)">
<path d="M64 1L87 24H66C64.8954 24 64 23.1046 64 22V1Z" fill="white"/>
<path fill-rule="evenodd" clip-rule="evenodd" d="M59.4075 0.666667H17.5C14.7386 0.666667 12.5 2.90524 12.5 5.66667V95C12.5 97.7614 14.7386 100 17.5 100H82C84.7614 100 87 97.7614 87 95V28.2593H64.4075C61.6461 28.2593 59.4075 26.0207 59.4075 23.2593V0.666667ZM50 44C52.2091 44 54 45.7909 54 48V60H66C68.2091 60 70 61.7909 70 64C70 66.2091 68.2091 68 66 68H54V80C54 82.2091 52.2091 84 50 84C47.7909 84 46 82.2091 46 80V68H34C31.7909 68 30 66.2091 30 64C30 61.7909 31.7909 60 34 60H46V48C46 45.7909 47.7909 44 50 44Z" fill="white"/>
</g>
<defs>
<clipPath id="clip0_4_216">
<rect width="100" height="100" fill="white"/>
</clipPath>
</defs>
</svg>
