<svg width="100" height="100" viewBox="0 0 100 100" fill="none" xmlns="http://www.w3.org/2000/svg">
<path fill-rule="evenodd" clip-rule="evenodd" d="M22.2623 0C19.9083 0 18 1.90831 18 4.26232V95.7377C18 98.0917 19.9083 100 22.2623 100C24.6163 100 26.5246 98.0917 26.5246 95.7377V41.9802C26.5246 41.2274 27.3303 40.7433 28.0136 41.0591C38.0058 45.6763 46.3838 42.9992 54.7619 40.3222C61.8007 38.0731 68.8395 35.824 76.8356 37.9005C79.7502 38.6575 82.9997 36.7027 82.9997 33.6914V6.93365C82.9997 5.36976 82.0918 3.93005 80.6323 3.36807C69.4268 -0.946768 61.1566 1.82351 53.2069 4.48643C44.9697 7.24563 37.0767 9.88955 26.6191 4.41708C26.5618 4.3871 26.5246 4.327 26.5246 4.26232V4.26232C26.5246 1.90831 24.6163 0 22.2623 0Z" fill="white"/>
</svg>
