<svg width="100" height="100" viewBox="0 0 100 100" fill="none" xmlns="http://www.w3.org/2000/svg">
<path fill-rule="evenodd" clip-rule="evenodd" d="M0 19C0 16.2386 2.22909 14 4.99052 14H31.25C33.125 14 35.3125 16.1724 37.5 18.3448C39.6875 20.5172 41.875 22.6897 43.75 22.6897H95.0071C97.7685 22.6897 100 24.9282 100 27.6897V81C100 83.7614 97.7614 86 95 86H5C2.23858 86 0 83.7614 0 81V19ZM50 35C52.2091 35 54 36.7909 54 39V51H66C68.2091 51 70 52.7909 70 55C70 57.2091 68.2091 59 66 59H54V71C54 73.2091 52.2091 75 50 75C47.7909 75 46 73.2091 46 71V59H34C31.7909 59 30 57.2091 30 55C30 52.7909 31.7909 51 34 51H46V39C46 36.7909 47.7909 35 50 35Z" fill="white"/>
</svg>
