<svg width="100" height="100" viewBox="0 0 100 100" fill="none" xmlns="http://www.w3.org/2000/svg">
<path fill-rule="evenodd" clip-rule="evenodd" d="M4.99052 14C2.22909 14 0 16.2386 0 19V81C0 83.7614 2.23858 86 5 86H95C97.7614 86 100 83.7614 100 81V27.6897C100 24.9282 97.7685 22.6897 95.0071 22.6897H43.75C41.875 22.6897 39.6875 20.5172 37.5 18.3448C35.3125 16.1724 33.125 14 31.25 14H4.99052ZM34 51C31.7909 51 30 52.7909 30 55C30 57.2091 31.7909 59 34 59H34.0732H34.1462H34.2919H34.5818H35.1558H35.44H35.7223H36.2815H36.8336H37.379H37.9178H38.4504H39.4976H39.5623H39.6269H39.7559H40.0128H40.5228H41.5278H42.5147H43.4856H43.9656H44.0254H44.0851H44.2044H44.4423H45.387H45.6216H45.6801H45.7386H45.7971H45.8555H45.9139H45.9723H46.0306H46.0889H46.1471H46.2053H46.2635H46.3217H46.3798H46.4379H46.496H46.554H46.612H46.67H46.728H46.7859H46.8438H46.9016H46.9595H47.0173H47.0751H47.1329H47.1906H47.2483H47.306H47.3637H47.4213H47.4789H47.5365H47.5941H47.6517H47.7092H47.7668H47.8243H47.8817H47.9392H47.9967H48.0541H48.1115H48.1689H48.2263H48.2836H48.341H48.3983H48.4557H48.513H48.5703H48.6275H48.6848H48.7421H48.7993H48.8566H48.9138H48.971H49.0282H49.0855H49.1427H49.1998H49.257H49.3142H49.3714H49.4285H49.4857H49.5429H49.6H49.6572H49.7143H49.7714H49.8286H49.8857H49.9429H50H50.9146H51.8311H52.7517H53.2141H53.446H53.504H53.5621H53.6783H54.613H54.8481H54.907H54.9659H55.0249H55.0839H55.143H55.2021H55.2612H55.3204H55.3797H55.439H55.4983H55.5577H55.6171H55.6766H55.7361H55.7956H55.8553H55.9149H55.9746H56.0344H56.0942H56.1541H56.214H56.274H56.334H56.3941H56.4542H56.5144H56.5747H56.635H56.6953H56.7558H56.8162H56.8767H56.9373H56.998H57.0587H57.1194H57.1803H57.2411H57.3021H57.3631H57.4242H57.4853H57.5465H57.6077H57.669H57.7304H57.7919H57.8534H57.915H57.9766H58.0383H58.1001H58.1619H58.2239H58.2858H58.3479H58.41H58.4722H58.5345H58.5968H58.6592H58.7217H58.7842H58.8469H58.9096H58.9723H59.0352H59.0981H59.1611H59.2242H59.2873H59.3506H59.4139H59.4772H59.5407H59.6042H59.6679H59.7316H59.7953H59.8592H59.9231H59.9872H60.0513H60.1155H60.1797H60.2441H60.3085H60.3731H60.4377H60.5024H60.5672H60.632H60.697H60.762H60.8272H60.8924H60.9577H61.0231H61.0886H61.1542H61.2199H61.2856H61.3515H61.4174H61.4835H61.5496H61.6159H61.6822H61.7486H61.8151H61.8817H61.9485H62.0153H62.0822H62.1492H62.2163H62.2835H62.3508H62.4182H62.4857H62.5533H62.621H62.6888H62.7567H62.8247H62.8929H62.9611H63.0294H63.0978H63.1664H63.235H63.3038H63.3726H63.4416H63.5106H63.5798H63.6491H63.7185H63.788H63.8576H63.9274H63.9972H64.0672H64.1372H64.2074H64.2777H64.3481H64.4186H64.4893H64.56H64.6309H64.7019H64.773H64.8442H64.9155H64.987H65.0585H65.1302H65.202H65.274H65.346H65.4182H65.4905H65.5629H65.6354H65.7081H65.7809H65.8538H65.9268H66C68.2091 59 70 57.2091 70 55C70 52.7909 68.2091 51 66 51H65.9268H65.8538H65.7809H65.7081H65.6354H65.5629H65.4905H65.4182H65.346H65.274H65.202H65.1302H65.0585H64.987H64.9155H64.8442H64.773H64.7019H64.6309H64.56H64.4893H64.4186H64.3481H64.2777H64.2074H64.1372H64.0672H63.9972H63.9274H63.8576H63.788H63.7185H63.6491H63.5798H63.5106H63.4416H63.3726H63.3038H63.235H63.1664H63.0978H63.0294H62.9611H62.8929H62.8247H62.7567H62.6888H62.621H62.5533H62.4857H62.4182H62.3508H62.2835H62.2163H62.1492H62.0822H62.0153H61.9485H61.8817H61.8151H61.7486H61.6822H61.6159H61.5496H61.4835H61.4174H61.3515H61.2856H61.2199H61.1542H61.0886H61.0231H60.9577H60.8924H60.8272H60.762H60.697H60.632H60.5672H60.5024H60.4377H60.3731H60.3085H60.2441H60.1797H60.1155H60.0513H59.9872H59.9231H59.8592H59.7953H59.7316H59.6679H59.6042H59.5407H59.4772H59.4139H59.3506H59.2873H59.2242H59.1611H59.0981H59.0352H58.9723H58.9096H58.8469H58.7842H58.7217H58.6592H58.5968H58.5345H58.4722H58.41H58.3479H58.2858H58.2239H58.1619H58.1001H58.0383H57.9766H57.915H57.8534H57.7919H57.7304H57.669H57.6077H57.5465H57.4853H57.4242H57.3631H57.3021H57.2411H57.1803H57.1194H57.0587H56.998H56.9373H56.8767H56.8162H56.7558H56.6953H56.635H56.5747H56.5144H56.4542H56.3941H56.334H56.274H56.214H56.1541H56.0942H56.0344H55.9746H55.9149H55.8553H55.7956H55.7361H55.6766H55.6171H55.5577H55.4983H55.439H55.3797H55.3204H55.2612H55.2021H55.143H55.0839H55.0249H54.9659H54.907H54.8481H54.613H53.6783H52.7517H51.8311H51.7737H51.7164H51.659H51.6017H51.3725H51.3152H51.2579H51.1434H51.029H50.9146H50H49.9429H49.8857H49.8286H49.7714H49.7143H49.6572H49.6H49.5429H49.4857H49.4285H49.3714H49.3142H49.257H49.1998H49.1427H49.0855H49.0282H48.971H48.9138H48.8566H48.7993H48.7421H48.6848H48.6275H48.5703H48.513H48.4557H48.3983H48.341H48.2836H48.2263H48.1689H48.1115H48.0541H47.9967H47.9392H47.8817H47.8243H47.7668H47.7092H47.6517H47.5941H47.5365H47.4789H47.4213H47.3637H47.306H47.2483H47.1906H47.1329H47.0751H47.0173H46.9595H46.9016H46.8438H46.7859H46.728H46.67H46.612H46.554H46.496H46.4379H46.3798H46.3217H46.2635H46.2053H46.1471H46.0889H46.0306H45.9723H45.9139H45.8555H45.7971H45.7386H45.6801H45.6216H45.387H45.3283H45.2695H45.1519H45.0341H44.9751H44.9161H44.7979H44.6796H44.4423H43.4856H43.365H43.2443H43.1233H43.0627H43.002H42.5147H41.5278H41.0277H40.9019H40.8389H40.7758H40.5228H39.4976H38.4504H37.9178H37.379H36.8336H36.2815H35.7223H35.44H35.1558H34.5818H34.2919H34.1462H34.0732H34Z" fill="white"/>
</svg>
