<svg width="100" height="100" viewBox="0 0 100 100" fill="none" xmlns="http://www.w3.org/2000/svg">
<g clip-path="url(#clip0_111_2)">
<path d="M4 4L96 96" stroke="white" stroke-width="8" stroke-linecap="round"/>
<path fill-rule="evenodd" clip-rule="evenodd" d="M13.9442 28.0863C10.8208 33.2612 8.79534 39.1733 8.19029 45.5C8.0644 46.8164 8 48.1507 8 49.5C8 50.8493 8.0644 52.1836 8.19029 53.5C10.0115 72.5438 24.7029 87.8314 43.4659 90.5645C44.1388 90.6625 44.817 90.7444 45.5 90.8097C46.8164 90.9356 48.1507 91 49.5 91C50.8493 91 52.1836 90.9356 53.5 90.8097C54.183 90.7444 54.8612 90.6625 55.5341 90.5645C61.0945 89.7545 66.2974 87.842 70.9137 85.0558L59.4498 73.592C57.8564 75.8914 55.9011 78.3211 53.5 81.0062V67.6421L45.5 59.6421V81.0062C41.2522 76.256 38.3997 72.305 36.4777 68.4611C34.2216 63.949 33.1542 59.3914 32.847 53.5H39.3579L25.398 39.5402C25.1132 41.4514 24.9335 43.4279 24.8374 45.5H16.2363C16.727 41.3761 17.9668 37.4822 19.8158 33.9579L13.9442 28.0863ZM85.0558 70.9137C88.1792 65.7388 90.2047 59.8267 90.8097 53.5C90.9356 52.1836 91 50.8493 91 49.5C91 48.1507 90.9356 46.8164 90.8097 45.5C88.9885 26.4562 74.2971 11.1686 55.5341 8.4355C54.8612 8.33748 54.183 8.25561 53.5 8.19029C52.1836 8.0644 50.8493 8 49.5 8C48.1507 8 46.8164 8.0644 45.5 8.19029C44.817 8.25561 44.1388 8.33748 43.4659 8.4355C37.9055 9.24546 32.7026 11.158 28.0863 13.9442L39.5502 25.408C41.1436 23.1086 43.0989 20.6789 45.5 17.9938V31.3579L53.5 39.3579V17.9938C57.7478 22.744 60.6003 26.695 62.5223 30.5389C64.7784 35.051 65.8458 39.6086 66.153 45.5H59.6421L73.602 59.4598C73.8868 57.5486 74.0665 55.5721 74.1626 53.5H82.7637C82.273 57.6239 81.0332 61.5178 79.1842 65.0421L85.0558 70.9137ZM33.554 78.9687C24.2109 73.9023 17.5478 64.5222 16.2363 53.5H24.8374C25.1556 60.3621 26.3912 66.1767 29.3223 72.0389C30.4775 74.3494 31.8801 76.6337 33.554 78.9687ZM74.1626 45.5H82.7637C81.4522 34.4778 74.7891 25.0977 65.446 20.0313C67.1199 22.3663 68.5224 24.6506 69.6777 26.9611C72.6088 32.8233 73.8444 38.6379 74.1626 45.5Z" fill="white"/>
</g>
<defs>
<clipPath id="clip0_111_2">
<rect width="100" height="100" fill="white"/>
</clipPath>
</defs>
</svg>
