<svg width="100" height="100" viewBox="0 0 100 100" fill="none" xmlns="http://www.w3.org/2000/svg">
<g clip-path="url(#clip0_21_2)">
<path fill-rule="evenodd" clip-rule="evenodd" d="M46 99.8423C45.3418 99.7902 44.6871 99.7254 44.0363 99.648C20.5381 96.8552 2.03887 77.7662 0.15767 54C0.0532195 52.6804 0 51.3464 0 50C0 48.6536 0.0532195 47.3196 0.15767 46C2.03887 22.2338 20.5381 3.14476 44.0363 0.351971C44.6871 0.274622 45.3418 0.209771 46 0.15767C47.3196 0.0532195 48.6536 0 50 0C51.3464 0 52.6804 0.0532195 54 0.15767C54.6582 0.209771 55.3129 0.274622 55.9637 0.351971C79.4619 3.14476 97.9611 22.2338 99.8423 46C99.9468 47.3196 100 48.6536 100 50C100 51.3464 99.9468 52.6804 99.8423 54C97.9611 77.7662 79.4619 96.8552 55.9637 99.648C55.3129 99.7254 54.6582 99.7902 54 99.8423C52.6804 99.9468 51.3464 100 50 100C48.6536 100 47.3196 99.9468 46 99.8423ZM34.5315 89.0598C20.1728 83.3687 9.69861 69.9891 8.188 54H21.0716C21.3929 62.5323 22.8455 69.6353 26.4223 76.7889C28.4459 80.8362 31.1143 84.8263 34.5315 89.0598ZM33.5777 73.2111C30.6862 67.4282 29.3912 61.5961 29.0778 54H46V90.0824C40.0584 83.617 36.1474 78.3505 33.5777 73.2111ZM29.0778 46H46V9.91763C40.0584 16.383 36.1474 21.6495 33.5777 26.7889C30.6862 32.5718 29.3912 38.4039 29.0778 46ZM54 46V9.91763C59.9416 16.383 63.8526 21.6495 66.4223 26.7889C69.3138 32.5718 70.6088 38.4039 70.9222 46H54ZM54 54H70.9222C70.6088 61.5961 69.3138 67.4282 66.4223 73.2111C63.8526 78.3505 59.9416 83.617 54 90.0824V54ZM73.5777 76.7889C71.5541 80.8362 68.8857 84.8263 65.4685 89.0598C79.8272 83.3687 90.3014 69.9891 91.812 54H78.9284C78.6071 62.5323 77.1545 69.6353 73.5777 76.7889ZM78.9284 46H91.812C90.3014 30.0109 79.8272 16.6313 65.4685 10.9402C68.8857 15.1737 71.5541 19.1638 73.5777 23.2111C77.1545 30.3647 78.6071 37.4677 78.9284 46ZM26.4223 23.2111C28.4459 19.1638 31.1143 15.1737 34.5315 10.9402C20.1728 16.6313 9.69861 30.0109 8.188 46H21.0716C21.3929 37.4677 22.8455 30.3647 26.4223 23.2111Z" fill="white"/>
</g>
<defs>
<clipPath id="clip0_21_2">
<rect width="100" height="100" fill="white"/>
</clipPath>
</defs>
</svg>
