<svg width="100" height="100" viewBox="0 0 100 100" fill="none" xmlns="http://www.w3.org/2000/svg">
<path fill-rule="evenodd" clip-rule="evenodd" d="M52.0809 9.00385C50.9192 7.88513 49.0808 7.88513 47.9191 9.00385L1.35944 53.839C-0.585494 55.7119 0.740269 59 3.44036 59H14V89C14 90.6569 15.3431 92 17 92H38.3103C39.9672 92 41.3103 90.6568 41.3103 89V70.1944C41.3103 68.5376 42.6535 67.1944 44.3103 67.1944H55.6896C57.3465 67.1944 58.6896 68.5376 58.6896 70.1944V89C58.6896 90.6569 60.0328 92 61.6896 92H83C84.6568 92 86 90.6569 86 89V59H96.5596C99.2597 59 100.585 55.7119 98.6405 53.839L52.0809 9.00385Z" fill="white"/>
</svg>
