<svg width="100" height="100" viewBox="0 0 100 100" fill="none" xmlns="http://www.w3.org/2000/svg">
<path fill-rule="evenodd" clip-rule="evenodd" d="M5.1447 1.18469C6.70679 -0.377408 9.23945 -0.377408 10.8016 1.18469L62.6171 53.0002C66.3445 50.4755 70.8169 49.0047 75.6259 49.0047C88.6333 49.0047 99.1779 59.7645 99.1779 73.0373C99.1779 86.3101 88.6333 97.0699 75.6259 97.0699C62.6186 97.0699 52.074 86.3101 52.074 73.0373C52.074 67.5913 53.8492 62.5684 56.8414 58.5383L23.2979 24.9947L19.0872 29.2054C17.1346 31.158 13.9688 31.158 12.0162 29.2054L3.68029 20.8695C1.72767 18.9169 1.72766 15.7511 3.68029 13.7985L7.89095 9.5878L5.1447 6.84154C3.5826 5.27945 3.5826 2.74679 5.1447 1.18469ZM75.6259 89.0699C84.0634 89.0699 91.1779 82.045 91.1779 73.0373C91.1779 64.0296 84.0634 57.0047 75.6259 57.0047C67.1884 57.0047 60.074 64.0296 60.074 73.0373C60.074 82.045 67.1884 89.0699 75.6259 89.0699Z" fill="white"/>
</svg>
