<svg width="100" height="100" viewBox="0 0 100 100" fill="none" xmlns="http://www.w3.org/2000/svg">
<path d="M19 8V33C19 36.866 22.134 40 26 40H32M45 8V33C45 36.866 41.866 40 38 40H32M32 40V8M32 40V93" stroke="white" stroke-width="8" stroke-linecap="round"/>
<path d="M58.0144 60.5042C58.3169 49.4114 63.3613 17.9549 72.5204 8.33139C73.0889 7.73411 74 8.17823 74 9.00279V61.5H59C58.4477 61.5 57.9994 61.0563 58.0144 60.5042Z" fill="white"/>
<path d="M74 93V61.5M74 61.5V9.00279C74 8.17823 73.0889 7.73411 72.5204 8.33139C63.3613 17.9549 58.3169 49.4114 58.0144 60.5042C57.9994 61.0563 58.4477 61.5 59 61.5H74Z" stroke="white" stroke-width="8" stroke-linecap="round"/>
</svg>
