<svg width="100" height="100" viewBox="0 0 100 100" fill="none" xmlns="http://www.w3.org/2000/svg">
<path fill-rule="evenodd" clip-rule="evenodd" d="M0.908171 24.5494C0.330093 25.5678 0 26.7453 0 28V71C0 74.866 3.13401 78 7 78H93C96.866 78 100 74.866 100 71V28C100 26.7453 99.6699 25.5678 99.0918 24.5494L52.9648 54.0707C51.1575 55.2274 48.8425 55.2274 47.0352 54.0707L0.908171 24.5494ZM94.9378 21.2717C94.3224 21.0948 93.6723 21 93 21H7C6.32774 21 5.67761 21.0948 5.06224 21.2717L49.7305 49.8593C49.8948 49.9645 50.1052 49.9645 50.2695 49.8593L94.9378 21.2717Z" fill="white"/>
</svg>
