<svg width="100" height="100" viewBox="0 0 100 100" fill="none" xmlns="http://www.w3.org/2000/svg">
<g clip-path="url(#clip0_113_2)">
<path fill-rule="evenodd" clip-rule="evenodd" d="M64.3223 18H13C5.8203 18 0 23.8203 0 31V87C0 94.1797 5.8203 100 13 100H69C76.1797 100 82 94.1797 82 87V35.6777L72 45.6777V87C72 88.6569 70.6569 90 69 90H13C11.3431 90 10 88.6569 10 87V31C10 29.3431 11.3431 28 13 28H54.3223L64.3223 18Z" fill="white"/>
<path d="M65 5H95M95 5V35M95 5L40 60" stroke="white" stroke-width="10" stroke-linecap="round"/>
</g>
<defs>
<clipPath id="clip0_113_2">
<rect width="100" height="100" fill="white"/>
</clipPath>
</defs>
</svg>
