<svg width="100" height="100" viewBox="0 0 100 100" fill="none" xmlns="http://www.w3.org/2000/svg">
<g clip-path="url(#clip0_305_79)">
<path fill-rule="evenodd" clip-rule="evenodd" d="M57.7628 96.3204C67.5653 81.3801 83.4475 53.9718 83.4475 33.2238C83.4475 14.8748 68.5727 0 50.2238 0C31.8748 0 17 14.8748 17 33.2238C17 53.9718 32.8823 81.3801 42.6847 96.3204C46.324 101.867 54.1235 101.867 57.7628 96.3204ZM50.2238 53.5867C61.4699 53.5867 70.5867 44.4699 70.5867 33.2238C70.5867 21.9776 61.4699 12.8608 50.2238 12.8608C38.9776 12.8608 29.8608 21.9776 29.8608 33.2238C29.8608 44.4699 38.9776 53.5867 50.2238 53.5867Z" fill="white"/>
</g>
<defs>
<clipPath id="clip0_305_79">
<rect width="100" height="100" fill="white"/>
</clipPath>
</defs>
</svg>
