<svg width="100" height="100" viewBox="0 0 100 100" fill="none" xmlns="http://www.w3.org/2000/svg">
<g clip-path="url(#clip0_21_12)">
<path d="M57 4H81C89.2843 4 96 10.7157 96 19V81C96 89.2843 89.2843 96 81 96H57" stroke="white" stroke-width="8" stroke-linecap="round"/>
<path d="M4 46C1.79086 46 0 47.7909 0 50C0 52.2091 1.79086 54 4 54L4 46ZM65.8284 52.8284C67.3905 51.2663 67.3905 48.7337 65.8284 47.1716L40.3726 21.7157C38.8105 20.1536 36.2778 20.1536 34.7157 21.7157C33.1536 23.2778 33.1536 25.8105 34.7157 27.3726L57.3431 50L34.7157 72.6274C33.1536 74.1895 33.1536 76.7222 34.7157 78.2843C36.2778 79.8464 38.8105 79.8464 40.3726 78.2843L65.8284 52.8284ZM4 54L63 54V46L4 46L4 54Z" fill="white"/>
</g>
<defs>
<clipPath id="clip0_21_12">
<rect width="100" height="100" fill="white"/>
</clipPath>
</defs>
</svg>
