<svg width="100" height="100" viewBox="0 0 100 100" fill="none" xmlns="http://www.w3.org/2000/svg">
<g clip-path="url(#clip0_21_16)">
<path d="M43 4H19C10.7157 4 4 10.7157 4 19V81C4 89.2843 10.7157 96 19 96H43" stroke="white" stroke-width="8" stroke-linecap="round"/>
<path d="M37 46C34.7909 46 33 47.7909 33 50C33 52.2091 34.7909 54 37 54V46ZM98.8284 52.8284C100.391 51.2663 100.391 48.7337 98.8284 47.1716L73.3726 21.7157C71.8105 20.1536 69.2778 20.1536 67.7157 21.7157C66.1536 23.2778 66.1536 25.8105 67.7157 27.3726L90.3431 50L67.7157 72.6274C66.1536 74.1895 66.1536 76.7222 67.7157 78.2843C69.2778 79.8464 71.8105 79.8464 73.3726 78.2843L98.8284 52.8284ZM37 54L96 54V46L37 46V54Z" fill="white"/>
</g>
<defs>
<clipPath id="clip0_21_16">
<rect width="100" height="100" fill="white" transform="matrix(-1 0 0 1 100 0)"/>
</clipPath>
</defs>
</svg>
