<svg width="100" height="100" viewBox="0 0 100 100" fill="none" xmlns="http://www.w3.org/2000/svg">
<g clip-path="url(#clip0_7_16)">
<path d="M66.9742 59.7168C65.4121 58.1547 62.8794 58.1547 61.3173 59.7168C59.7552 61.2789 59.7552 63.8116 61.3173 65.3737L66.9742 59.7168ZM92.9991 97.0554C94.5612 98.6175 97.0939 98.6175 98.656 97.0554C100.218 95.4933 100.218 92.9607 98.656 91.3986L92.9991 97.0554ZM61.0189 17.0262C72.891 28.8983 72.891 48.1468 61.0189 60.0189L66.6758 65.6757C81.672 50.6794 81.672 26.3656 66.6758 11.3693L61.0189 17.0262ZM18.0262 17.0262C29.8983 5.15409 49.1468 5.15409 61.0189 17.0262L66.6758 11.3693C51.6795 -3.62696 27.3657 -3.62696 12.3694 11.3693L18.0262 17.0262ZM18.0262 60.0189C6.15414 48.1468 6.15414 28.8983 18.0262 17.0262L12.3694 11.3693C-2.62691 26.3656 -2.62691 50.6794 12.3694 65.6757L18.0262 60.0189ZM61.0189 60.0189C49.1468 71.891 29.8983 71.891 18.0262 60.0189L12.3694 65.6757C27.3657 80.672 51.6795 80.672 66.6758 65.6757L61.0189 60.0189ZM61.3173 65.3737L92.9991 97.0554L98.656 91.3986L66.9742 59.7168L61.3173 65.3737Z" fill="white"/>
</g>
<defs>
<clipPath id="clip0_7_16">
<rect width="100" height="100" fill="white"/>
</clipPath>
</defs>
</svg>
