<svg width="100" height="100" viewBox="0 0 100 100" fill="none" xmlns="http://www.w3.org/2000/svg">
<path d="M38.9133 23H61V23C66.5165 23 70.9884 27.472 70.9884 32.9884V56.5058C70.9884 58.1594 69.6479 59.5 67.9942 59.5V59.5C66.3406 59.5 65 58.1594 65 56.5058V35.5C65 34.3954 64.1046 33.5 63 33.5V33.5C61.8954 33.5 61 34.3954 61 35.5V59.5V92C61 94.2091 59.2091 96 57 96V96C54.7909 96 53 94.2091 53 92V62C53 60.067 51.433 58.5 49.5 58.5V58.5C47.567 58.5 46 60.067 46 62V92C46 94.2091 44.2091 96 42 96V96C39.7909 96 38 94.2091 38 92V59.5V35.4999C38 34.3954 37.1046 33.5 36.0001 33.5V33.5C34.8956 33.5 34.0002 34.3954 34.0002 35.4999V56.5058C34.0002 58.1594 32.6596 59.5 31.0059 59.5V59.5C29.3523 59.5 28.0117 58.1594 28.0117 56.5058V33.9016C28.0117 27.8808 32.8925 23 38.9133 23V23Z" fill="white"/>
<circle cx="49.5" cy="11.5" r="8.5" fill="white"/>
</svg>
