<svg width="100" height="100" viewBox="0 0 100 100" fill="none" xmlns="http://www.w3.org/2000/svg">
<g clip-path="url(#clip0_24_106)">
<path d="M4 4L96 96" stroke="white" stroke-width="8" stroke-linecap="round"/>
<path fill-rule="evenodd" clip-rule="evenodd" d="M32 46.1421L24 38.1421V46.8715C24 59.5939 33.3169 70.1402 45.5 72.0596V91H33.6579C31.4488 91 29.6579 92.7909 29.6579 95C29.6579 97.2091 31.4488 99 33.6579 99H49.5H65.3421C67.5512 99 69.3421 97.2091 69.3421 95C69.3421 92.7909 67.5512 91 65.3421 91H53.5V72.0596C54.7255 71.8665 55.922 71.5862 57.0829 71.2251L50.215 64.3572C49.9779 64.3667 49.7395 64.3715 49.5 64.3715C39.835 64.3715 32 56.5365 32 46.8715V46.1421ZM37 22.8579L61.8123 47.6702C61.9357 46.9653 62 46.2402 62 45.5V12.5C62 5.59644 56.4036 0 49.5 0C42.5964 0 37 5.59644 37 12.5V22.8579ZM66.2143 52.0721L72.3486 58.2064C74.0457 54.792 75 50.9432 75 46.8715V33C75 30.7909 73.2091 29 71 29C68.7909 29 67 30.7909 67 33V46.8715C67 48.6825 66.7249 50.4292 66.2143 52.0721Z" fill="white"/>
</g>
<defs>
<clipPath id="clip0_24_106">
<rect width="100" height="100" fill="white" transform="matrix(-1 0 0 1 100 0)"/>
</clipPath>
</defs>
</svg>
