<svg width="100" height="100" viewBox="0 0 100 100" fill="none" xmlns="http://www.w3.org/2000/svg">
<path d="M60.9883 28C60.9883 26.3431 59.6451 25 57.9883 25H39.9883C34.4718 25 29.9998 29.472 29.9998 34.9884V58.5058C29.9998 60.1594 31.3404 61.5 32.9941 61.5C34.6477 61.5 35.9883 60.1594 35.9883 58.5058V37.5C35.9883 36.3954 36.8837 35.5 37.9883 35.5C39.0929 35.5 39.9883 36.3954 39.9883 37.5V52.5C39.9883 56.9183 43.57 60.5 47.9883 60.5C51.8543 60.5 54.9883 63.634 54.9883 67.5V95C54.9883 96.6569 56.3314 98 57.9883 98C59.6451 98 60.9883 96.6569 60.9883 95V61.5V37V28Z" fill="white"/>
<circle cx="49.5" cy="11.5" r="8.5" fill="white"/>
<path d="M40 43.5H59L69 76H40V43.5Z" fill="white"/>
<path d="M60.9881 25H52.4885C46.6895 25 41.9885 29.701 41.9885 35.5V95C41.9885 96.6569 43.3316 98 44.9885 98C46.6453 98 47.9885 96.6569 47.9885 95V70.5C47.9885 66.634 51.1225 63.5 54.9885 63.5C58.302 63.5 60.9881 60.8139 60.9881 57.5004V37.1404C60.9881 36.2344 61.7225 35.5 62.6285 35.5C63.4171 35.5 64.0942 36.0612 64.2404 36.8362L68.5423 59.6368C68.8009 61.0074 69.9982 62 71.393 62C73.2421 62 74.6193 60.2932 74.2285 58.4859L68.2563 30.8646C67.5164 27.4424 64.4894 25 60.9881 25Z" fill="white"/>
</svg>
