<svg width="100" height="100" viewBox="0 0 100 100" fill="none" xmlns="http://www.w3.org/2000/svg">
<path fill-rule="evenodd" clip-rule="evenodd" d="M75.7907 3.14885C76.7207 1.82351 75.7727 0 74.1536 0H24.8472C23.2281 0 22.2801 1.82351 23.2101 3.14885L30.6375 13.7329C30.8737 14.0694 31.0004 14.4706 31.0004 14.8817V28.5V42.1183C31.0004 42.5294 30.8737 42.9306 30.6375 43.2671L23.2101 53.8511C22.2801 55.1765 23.2281 57 24.8472 57H43.0004C44.105 57 45.0004 57.8954 45.0004 59V94.1716C45.0004 94.702 45.2111 95.2107 45.5862 95.5858L48.5862 98.5858C49.3672 99.3668 50.6336 99.3668 51.4146 98.5858L54.4146 95.5858C54.7897 95.2107 55.0004 94.702 55.0004 94.1716V59C55.0004 57.8954 55.8958 57 57.0004 57H74.1536C75.7727 57 76.7207 55.1765 75.7907 53.8511L68.3633 43.2671C68.1271 42.9306 68.0004 42.5294 68.0004 42.1183V28.5V14.8817C68.0004 14.4706 68.1271 14.0694 68.3633 13.7329L75.7907 3.14885Z" fill="white"/>
</svg>
