<svg width="100" height="100" viewBox="0 0 100 100" fill="none" xmlns="http://www.w3.org/2000/svg">
<g clip-path="url(#clip0_309_2)">
<rect x="27" y="56" width="46" height="44" rx="8" fill="white"/>
<path d="M27 8C27 3.58172 30.5817 0 35 0H65C69.4183 0 73 3.58172 73 8V29H27V8Z" fill="white"/>
<path fill-rule="evenodd" clip-rule="evenodd" d="M0 45C0 40.5817 3.58172 37 8 37H92C96.4183 37 100 40.5817 100 45V73C100 77.4183 96.4183 81 92 81H80V65C80 56.1634 72.8366 49 64 49H36C27.1634 49 20 56.1634 20 65V81H8C3.58172 81 0 77.4183 0 73V45ZM91 50C93.2091 50 95 48.2091 95 46C95 43.7909 93.2091 42 91 42C88.7909 42 87 43.7909 87 46C87 48.2091 88.7909 50 91 50Z" fill="white"/>
</g>
<defs>
<clipPath id="clip0_309_2">
<rect width="100" height="100" fill="white"/>
</clipPath>
</defs>
</svg>
