<svg width="100" height="100" viewBox="0 0 100 100" fill="none" xmlns="http://www.w3.org/2000/svg">
<g clip-path="url(#clip0_4_64)">
<path fill-rule="evenodd" clip-rule="evenodd" d="M0.612305 26.6591C0.612305 23.8977 2.85088 21.6591 5.6123 21.6591H95.0001C97.7615 21.6591 100 23.8977 100 26.6591V41.506C100 44.2675 97.7615 46.506 95.0001 46.506H5.61231C2.85089 46.506 0.612305 44.2675 0.612305 41.506V26.6591ZM31.1062 34.0826C31.1062 36.5776 29.0836 38.6002 26.5885 38.6002C24.0935 38.6002 22.0709 36.5776 22.0709 34.0826C22.0709 31.5875 24.0935 29.5649 26.5885 29.5649C29.0836 29.5649 31.1062 31.5875 31.1062 34.0826ZM13.0358 38.6002C15.5308 38.6002 17.5534 36.5776 17.5534 34.0826C17.5534 31.5875 15.5308 29.5649 13.0358 29.5649C10.5408 29.5649 8.51817 31.5875 8.51817 34.0826C8.51817 36.5776 10.5408 38.6002 13.0358 38.6002Z" fill="white"/>
<path fill-rule="evenodd" clip-rule="evenodd" d="M0.612305 57.1531C0.612305 54.3916 2.85088 52.1531 5.6123 52.1531H95.0001C97.7615 52.1531 100 54.3916 100 57.1531V72C100 74.7614 97.7615 77 95.0001 77H5.61231C2.85089 77 0.612305 74.7614 0.612305 72V57.1531ZM31.1062 64.5765C31.1062 67.0715 29.0836 69.0942 26.5885 69.0942C24.0935 69.0942 22.0709 67.0715 22.0709 64.5765C22.0709 62.0815 24.0935 60.0589 26.5885 60.0589C29.0836 60.0589 31.1062 62.0815 31.1062 64.5765ZM13.0358 69.0942C15.5308 69.0942 17.5534 67.0715 17.5534 64.5765C17.5534 62.0815 15.5308 60.0589 13.0358 60.0589C10.5408 60.0589 8.51817 62.0815 8.51817 64.5765C8.51817 67.0715 10.5408 69.0942 13.0358 69.0942Z" fill="white"/>
</g>
<defs>
<clipPath id="clip0_4_64">
<rect width="100" height="100" fill="white"/>
</clipPath>
</defs>
</svg>
