<svg width="100" height="100" viewBox="0 0 100 100" fill="none" xmlns="http://www.w3.org/2000/svg">
<path d="M77.6 66C77.6 72.0751 72.6572 77 66.56 77C60.4628 77 55.52 72.0751 55.52 66M77.6 66C77.6 59.9249 72.6572 55 66.56 55C60.4628 55 55.52 59.9249 55.52 66M77.6 66H96M55.52 66H4" stroke="white" stroke-width="8" stroke-linecap="round"/>
<path d="M22.4 34C22.4 27.9249 27.3428 23 33.44 23C39.5372 23 44.48 27.9249 44.48 34M22.4 34C22.4 40.0751 27.3428 45 33.44 45C39.5372 45 44.48 40.0751 44.48 34M22.4 34L4 34M44.48 34L96 34" stroke="white" stroke-width="8" stroke-linecap="round"/>
</svg>
