<svg width="100" height="100" viewBox="0 0 100 100" fill="none" xmlns="http://www.w3.org/2000/svg">
<path d="M60 62C66.6274 62 72 56.6274 72 50C72 43.3726 66.6274 38 60 38" stroke="white" stroke-width="8" stroke-linecap="round"/>
<path d="M18.7727 31C19.5725 31 20.3539 30.7602 21.0161 30.3117L44.7566 14.2294C47.4127 12.4301 51 14.3329 51 17.5411V82.8569C51 85.9829 47.575 87.9008 44.9098 86.2673L20.962 71.5896C20.3329 71.2041 19.6095 71 18.8717 71H4C1.79086 71 0 69.2091 0 67V35C0 32.7909 1.79086 31 4 31H18.7727Z" fill="white"/>
</svg>
