<svg width="100" height="100" viewBox="0 0 100 100" fill="none" xmlns="http://www.w3.org/2000/svg">
<g clip-path="url(#clip0_302_65)">
<path d="M47.3743 4.75149C48.5156 2.68619 51.4844 2.68618 52.6257 4.75148L66.5843 30.0106C67.0146 30.7892 67.7681 31.3366 68.6415 31.5052L96.9778 36.9751C99.2947 37.4224 100.212 40.2459 98.6006 41.9696L78.8912 63.0505C78.2837 63.7002 77.9958 64.5861 78.1054 65.4688L81.6596 94.1085C81.9502 96.4502 79.5484 98.1953 77.4111 97.1953L51.2714 84.9649C50.4657 84.5879 49.5343 84.5879 48.7286 84.9649L22.5889 97.1953C20.4516 98.1953 18.0498 96.4502 18.3404 94.1085L21.8946 65.4688C22.0041 64.5861 21.7163 63.7002 21.1088 63.0505L1.39942 41.9696C-0.212107 40.2459 0.705315 37.4224 3.02222 36.9751L31.3585 31.5052C32.2319 31.3366 32.9854 30.7892 33.4157 30.0106L47.3743 4.75149Z" fill="white"/>
</g>
<defs>
<clipPath id="clip0_302_65">
<rect width="100" height="100" fill="white"/>
</clipPath>
</defs>
</svg>
