<svg width="100" height="100" viewBox="0 0 100 100" fill="none" xmlns="http://www.w3.org/2000/svg">
<g clip-path="url(#clip0_306_103)">
<path d="M-2.61462e-06 96C3.7917e-06 98.2091 1.79086 100 4 100L40 100C42.2091 100 44 98.2091 44 96C44 93.7909 42.2091 92 40 92L8 92L8 60C8 57.7909 6.20914 56 4 56C1.79086 56 -7.60157e-07 57.7909 5.88542e-07 60L-2.61462e-06 96ZM100 4C100 1.79086 98.2091 -3.16732e-08 96 1.36914e-07L60 -2.00261e-07C57.7909 -2.00261e-07 56 1.79086 56 4C56 6.20914 57.7909 8 60 8L92 8L92 40C92 42.2091 93.7909 44 96 44C98.2091 44 100 42.2091 100 40L100 4ZM6.82843 98.8284L98.8284 6.82843L93.1716 1.17157L1.17157 93.1716L6.82843 98.8284Z" fill="white"/>
</g>
<defs>
<clipPath id="clip0_306_103">
<rect width="100" height="100" fill="white" transform="matrix(-1 0 0 1 100 0)"/>
</clipPath>
</defs>
</svg>
