<svg width="100" height="100" viewBox="0 0 100 100" fill="none" xmlns="http://www.w3.org/2000/svg">
<g clip-path="url(#clip0_3_3)">
<circle cx="50" cy="50" r="26" fill="white"/>
<rect x="53" y="80" width="20" height="5" rx="2.5" transform="rotate(90 53 80)" fill="white"/>
<rect x="53" width="20" height="5" rx="2.5" transform="rotate(90 53 0)" fill="white"/>
<rect x="80" y="48" width="20" height="5" rx="2.5" fill="white"/>
<rect y="48" width="20" height="5" rx="2.5" fill="white"/>
<rect x="53" y="80" width="20" height="5" rx="2.5" transform="rotate(90 53 80)" fill="white"/>
<rect x="53" width="20" height="5" rx="2.5" transform="rotate(90 53 0)" fill="white"/>
<rect x="70.203" y="27.4658" width="19.7802" height="4.3956" rx="2.1978" transform="rotate(-45 70.203 27.4658)" fill="white"/>
<rect x="13.4791" y="84.1898" width="19.7802" height="4.3956" rx="2.1978" transform="rotate(-45 13.4791 84.1898)" fill="white"/>
<rect x="73.3112" y="69.426" width="19.7802" height="4.3956" rx="2.1978" transform="rotate(45 73.3112 69.426)" fill="white"/>
<rect x="16.5873" y="12.7021" width="19.7802" height="4.3956" rx="2.1978" transform="rotate(45 16.5873 12.7021)" fill="white"/>
</g>
<defs>
<clipPath id="clip0_3_3">
<rect width="100" height="100" fill="white"/>
</clipPath>
</defs>
</svg>
