<svg width="100" height="100" viewBox="0 0 100 100" fill="none" xmlns="http://www.w3.org/2000/svg">
<g clip-path="url(#clip0_302_67)">
<path fill-rule="evenodd" clip-rule="evenodd" d="M9.23465 41.418C9.37139 43.3385 10.1962 45.1452 11.5576 46.5067L59.2525 94.2015C62.3767 97.3257 67.442 97.3257 70.5662 94.2015L94.2015 70.5662C97.3257 67.442 97.3257 62.3767 94.2015 59.2525L46.45 11.501C45.1229 10.1738 43.3714 9.35556 41.5019 9.18928L16.0753 6.92771C11.1685 6.49128 7.03687 10.5507 7.38673 15.4644L9.23465 41.418ZM27.0115 27.0104C29.7424 24.2795 29.7424 19.8519 27.0115 17.1211C24.2806 14.3902 19.853 14.3902 17.1222 17.1211C14.3913 19.8519 14.3913 24.2795 17.1222 27.0104C19.853 29.7413 24.2806 29.7413 27.0115 27.0104Z" fill="white"/>
</g>
<defs>
<clipPath id="clip0_302_67">
<rect width="100" height="100" fill="white"/>
</clipPath>
</defs>
</svg>
