<svg width="100" height="100" viewBox="0 0 100 100" fill="none" xmlns="http://www.w3.org/2000/svg">
<path fill-rule="evenodd" clip-rule="evenodd" d="M93.4696 4.37651C92.6936 4.16857 91.8959 4.6291 91.688 5.40514L85.9374 26.8666L80.1868 5.40514C79.9789 4.6291 79.1812 4.16857 78.4051 4.37651C77.6291 4.58445 77.1686 5.38212 77.3765 6.15816L83.6351 29.5156C81.5861 29.961 80.0191 30.9838 79.5155 32.2449H4C1.79086 32.2449 0 34.0357 0 36.2449V91.9811C0 94.1903 1.79086 95.9811 4 95.9811H96C98.2091 95.9811 100 94.1902 100 91.9811V36.2449C100 34.0357 98.2091 32.2449 96 32.2449H92.3588C91.8552 30.9839 90.2884 29.9612 88.2396 29.5157L94.4982 6.15815C94.7062 5.38212 94.2456 4.58445 93.4696 4.37651ZM70.6616 40.6927C68.1738 38.2201 10.9476 38.2201 8.4595 40.6927C5.97161 43.1652 5.97113 83.9619 8.45953 86.4344C10.9473 88.9069 68.1732 88.9069 70.6616 86.4344C73.1494 83.9619 73.1494 43.1652 70.6616 40.6927ZM92.3077 81.6954C92.3077 84.7299 89.8477 87.1899 86.8132 87.1899C83.7787 87.1899 81.3187 84.7299 81.3187 81.6954C81.3187 78.6609 83.7787 76.2009 86.8132 76.2009C89.8477 76.2009 92.3077 78.6609 92.3077 81.6954Z" fill="white"/>
</svg>
