<svg width="100" height="100" viewBox="0 0 100 100" fill="none" xmlns="http://www.w3.org/2000/svg">
<path d="M84.7519 20H14.2481C13.0512 20 12.1224 21.0441 12.2617 22.2328L21.1679 98.2328C21.286 99.2404 22.1398 100 23.1543 100H75.8457C76.8602 100 77.714 99.2404 77.8321 98.2328L86.7383 22.2328C86.8776 21.0441 85.9488 20 84.7519 20Z" fill="white"/>
<path fill-rule="evenodd" clip-rule="evenodd" d="M65.3333 1H34.6667C30.8333 1 27 7 27 7H9C7.89543 7 7 7.89543 7 9V12C7 13.1046 7.89543 14 9 14H90C91.1046 14 92 13.1046 92 12V9C92 7.89543 91.1046 7 90 7H73C73 7 69.1667 1 65.3333 1Z" fill="white"/>
</svg>
