<svg width="100" height="100" viewBox="0 0 100 100" fill="none" xmlns="http://www.w3.org/2000/svg">
<path fill-rule="evenodd" clip-rule="evenodd" d="M81.1126 16.0589L83.941 18.8873C85.5031 20.4494 85.5031 22.9821 83.941 24.5442L66.2634 42.2218L57.7781 33.7365L75.4558 16.0589C77.0178 14.4968 79.5505 14.4968 81.1126 16.0589ZM54.9497 30.9081L72.6273 13.2304C75.7515 10.1063 80.8168 10.1063 83.941 13.2304L86.7695 16.0589C89.8937 19.1831 89.8937 24.2484 86.7695 27.3726L69.0918 45.0503L27.3725 86.7696C24.2483 89.8937 19.183 89.8937 16.0588 86.7696L13.2304 83.9411C10.1062 80.8169 10.1062 75.7516 13.2304 72.6274L54.9497 30.9081Z" fill="white"/>
<path d="M20.0621 10.5345C20.3843 9.66389 21.6157 9.66389 21.9379 10.5345L24.3516 17.0576C24.4529 17.3313 24.6687 17.5471 24.9424 17.6484L31.4655 20.0621C32.3361 20.3843 32.3361 21.6157 31.4655 21.9379L24.9424 24.3516C24.6687 24.4529 24.4529 24.6687 24.3516 24.9424L21.9379 31.4655C21.6157 32.3361 20.3843 32.3361 20.0621 31.4655L17.6484 24.9424C17.5471 24.6687 17.3313 24.4529 17.0576 24.3516L10.5345 21.9379C9.66389 21.6157 9.66389 20.3843 10.5345 20.0621L17.0576 17.6484C17.3313 17.5471 17.5471 17.3313 17.6484 17.0576L20.0621 10.5345Z" fill="white"/>
<path d="M78.0621 68.5345C78.3843 67.6639 79.6157 67.6639 79.9379 68.5345L82.3516 75.0576C82.4529 75.3313 82.6687 75.5471 82.9424 75.6484L89.4655 78.0621C90.3361 78.3843 90.3361 79.6157 89.4655 79.9379L82.9424 82.3516C82.6687 82.4529 82.4529 82.6687 82.3516 82.9424L79.9379 89.4655C79.6157 90.3361 78.3843 90.3361 78.0621 89.4655L75.6484 82.9424C75.5471 82.6687 75.3313 82.4529 75.0576 82.3516L68.5345 79.9379C67.6639 79.6157 67.6639 78.3843 68.5345 78.0621L75.0576 75.6484C75.3313 75.5471 75.5471 75.3313 75.6484 75.0576L78.0621 68.5345Z" fill="white"/>
<path d="M55.5621 2.5345C55.8843 1.66389 57.1157 1.66389 57.4379 2.53451L58.9063 6.5029C59.0076 6.77662 59.2234 6.99243 59.4971 7.09371L63.4655 8.56215C64.3361 8.88431 64.3361 10.1157 63.4655 10.4379L59.4971 11.9063C59.2234 12.0076 59.0076 12.2234 58.9063 12.4971L57.4379 16.4655C57.1157 17.3361 55.8843 17.3361 55.5621 16.4655L54.0937 12.4971C53.9924 12.2234 53.7766 12.0076 53.5029 11.9063L49.5345 10.4379C48.6639 10.1157 48.6639 8.88431 49.5345 8.56215L53.5029 7.09371C53.7766 6.99243 53.9924 6.77662 54.0937 6.5029L55.5621 2.5345Z" fill="white"/>
</svg>
