<svg width="100" height="100" viewBox="0 0 100 100" fill="none" xmlns="http://www.w3.org/2000/svg">
<path fill-rule="evenodd" clip-rule="evenodd" d="M35.4395 43C21.1386 44.5268 10 56.6314 10 71.3376C10 87.0777 22.7599 99.8376 38.5 99.8376C54.2401 99.8376 67 87.0777 67 71.3376C67 71.2274 66.9994 71.1173 66.9981 71.0073H57.9973C57.9991 71.1172 58 71.2273 58 71.3376C58 82.1071 49.2696 90.8376 38.5 90.8376C27.7304 90.8376 19 82.1071 19 71.3376C19 61.6093 26.1238 53.5449 35.4395 52.0764V43Z" fill="white"/>
<path d="M79 89V63.7182C79 63.1659 78.5523 62.7182 78 62.7182H45C44.4477 62.7182 44 62.2705 44 61.7182V31.4911C44 30.7799 44.7215 30.296 45.3796 30.566L70.5741 40.9022" stroke="white" stroke-width="9" stroke-linecap="round"/>
<circle cx="44" cy="13" r="9" fill="white"/>
</svg>
