<svg width="100" height="100" viewBox="0 0 100 100" fill="none" xmlns="http://www.w3.org/2000/svg">
<path fill-rule="evenodd" clip-rule="evenodd" d="M36.4395 43.1624C22.1386 44.6893 11 56.7939 11 71.5C11 87.2401 23.7599 100 39.5 100C55.2401 100 68 87.2401 68 71.5C68 71.3898 67.9994 71.2797 67.9981 71.1697H58.9973C58.9991 71.2796 59 71.3897 59 71.5C59 82.2696 50.2696 91 39.5 91C28.7304 91 20 82.2696 20 71.5C20 61.7717 27.1238 53.7073 36.4395 52.2388V43.1624Z" fill="white"/>
<path d="M79 89V63.7182C79 63.1659 78.5523 62.7182 78 62.7182H45C44.4477 62.7182 44 62.2705 44 61.7182V31.4911C44 30.7799 44.7215 30.296 45.3796 30.566L70.5741 40.9022" stroke="white" stroke-width="9" stroke-linecap="round"/>
<circle cx="44" cy="9" r="9" fill="white"/>
</svg>
