<svg width="100" height="100" viewBox="0 0 100 100" fill="none" xmlns="http://www.w3.org/2000/svg">
<path fill-rule="evenodd" clip-rule="evenodd" d="M25 4C25 1.79086 26.7909 0 29 0H45H55H71C73.2091 0 75 1.79086 75 4V9H76.5C87.2696 9 96 17.7304 96 28.5C96 39.2696 87.2696 48 76.5 48H75V45C75 57.0948 66.4112 67.1836 55 69.4999V92H71C73.2091 92 75 93.7909 75 96V100H25V96C25 93.7909 26.7909 92 29 92H45V69.4999C33.5888 67.1836 25 57.0948 25 45V48H23.5C12.7304 48 4 39.2696 4 28.5C4 17.7304 12.7304 9 23.5 9H25V4ZM75 40H76.5C82.8513 40 88 34.8513 88 28.5C88 22.1487 82.8513 17 76.5 17H75V40ZM23.5 17H25V40H23.5C17.1487 40 12 34.8513 12 28.5C12 22.1487 17.1487 17 23.5 17Z" fill="white"/>
</svg>
