<svg width="100" height="100" viewBox="0 0 100 100" fill="none" xmlns="http://www.w3.org/2000/svg">
<path d="M40.0002 23H58.9998C62.5056 23 65.5411 25.435 66.3016 28.8573L72.216 55.472C72.6183 57.2825 71.2406 59 69.3859 59C67.9998 59 66.8076 58.0189 66.5409 56.6587L62.2606 34.8291C62.1092 34.057 61.4324 33.5 60.6456 33.5C59.7366 33.5 58.9998 34.2368 58.9998 35.1458V93C58.9998 94.6569 57.6567 96 55.9998 96C54.3429 96 52.9998 94.6569 52.9998 93V65C52.9998 63.067 51.4328 61.5 49.4998 61.5C47.5668 61.5 45.9998 63.067 45.9998 65V93.0002C45.9998 94.6569 44.6567 96 43 96C41.3432 96 40.0002 94.6569 40.0002 93.0002V35.1404C40.0002 34.2344 39.2657 33.5 38.3598 33.5C37.5711 33.5 36.8941 34.0612 36.7479 34.8362L32.446 57.6368C32.1874 59.0074 30.9901 60 29.5953 60C27.7462 60 26.369 58.2932 26.7598 56.4859L32.732 28.8646C33.4719 25.4424 36.4989 23 40.0002 23Z" fill="white"/>
<circle cx="49.5" cy="11.5" r="8.5" fill="white"/>
<path d="M40 43.5H59L69 76H30L40 43.5Z" fill="white"/>
</svg>
